<svg viewBox="0 0 308.845673228 205.112271654" width="308.845673228pt" height="205.112271654pt" xmlns="http://www.w3.org/2000/svg" xmlns:xlink="http://www.w3.org/1999/xlink" xmlns:h5="http://www.w3.org/1999/xhtml"><path fill="#ffffff" fill-rule="nonzero" d="M 0 0v 205.112271654h 308.845673228v -205.112271654Z "/><g transform="translate(6 6)"><g><path fill="none" stroke="#d4d4d4" stroke-width="1" stroke-linecap="butt" stroke-linejoin="miter" stroke-miterlimit="4" transform="translate(32.001145669 21.891874016)" d="M 0 0m 0 141.732283465v -141.732283465"/><path fill="none" stroke="#d4d4d4" stroke-width="1" stroke-linecap="butt" stroke-linejoin="miter" stroke-miterlimit="4" transform="translate(66.889092368 21.891874016)" d="M 0 0m 0 141.732283465v -141.732283465"/><path fill="none" stroke="#d4d4d4" stroke-width="1" stroke-linecap="butt" stroke-linejoin="miter" stroke-miterlimit="4" transform="translate(101.777039067 21.891874016)" d="M 0 0m 0 141.732283465v -141.732283465"/><path fill="none" stroke="#d4d4d4" stroke-width="1" stroke-linecap="butt" stroke-linejoin="miter" stroke-miterlimit="4" transform="translate(136.664985766 21.891874016)" d="M 0 0m 0 141.732283465v -141.732283465"/><path fill="none" stroke="#d4d4d4" stroke-width="1" stroke-linecap="butt" stroke-linejoin="miter" stroke-miterlimit="4" transform="translate(171.552932465 21.891874016)" d="M 0 0m 0 141.732283465v -141.732283465"/><path fill="none" stroke="#d4d4d4" stroke-width="1" stroke-linecap="butt" stroke-linejoin="miter" stroke-miterlimit="4" transform="translate(206.440879164 21.891874016)" d="M 0 0m 0 141.732283465v -141.732283465"/><path fill="none" stroke="#d4d4d4" stroke-width="1" stroke-linecap="butt" stroke-linejoin="miter" stroke-miterlimit="4" transform="translate(241.328825863 21.891874016)" d="M 0 0m 0 141.732283465v -141.732283465"/><path fill="none" stroke="#d4d4d4" stroke-width="1" stroke-linecap="butt" stroke-linejoin="miter" stroke-miterlimit="4" transform="translate(32.001145669 163.62415748)" d="M 0 0m 0 0h 226.771653543"/><path fill="none" stroke="#d4d4d4" stroke-width="1" stroke-linecap="butt" stroke-linejoin="miter" stroke-miterlimit="4" transform="translate(32.001145669 140.002110236)" d="M 0 0m 0 0h 226.771653543"/><path fill="none" stroke="#d4d4d4" stroke-width="1" stroke-linecap="butt" stroke-linejoin="miter" stroke-miterlimit="4" transform="translate(32.001145669 116.380062992)" d="M 0 0m 0 0h 226.771653543"/><path fill="none" stroke="#d4d4d4" stroke-width="1" stroke-linecap="butt" stroke-linejoin="miter" stroke-miterlimit="4" transform="translate(32.001145669 92.758015748)" d="M 0 0m 0 0h 226.771653543"/><path fill="none" stroke="#d4d4d4" stroke-width="1" stroke-linecap="butt" stroke-linejoin="miter" stroke-miterlimit="4" transform="translate(32.001145669 69.135968504)" d="M 0 0m 0 0h 226.771653543"/><path fill="none" stroke="#d4d4d4" stroke-width="1" stroke-linecap="butt" stroke-linejoin="miter" stroke-miterlimit="4" transform="translate(32.001145669 45.51392126)" d="M 0 0m 0 0h 226.771653543"/><path fill="none" stroke="#d4d4d4" stroke-width="1" stroke-linecap="butt" stroke-linejoin="miter" stroke-miterlimit="4" transform="translate(32.001145669 21.891874016)" d="M 0 0m 0 0h 226.771653543"/><path fill="none" stroke="#000000" stroke-width="1" stroke-linecap="butt" stroke-linejoin="miter" stroke-miterlimit="4" transform="translate(29.1665 163.62415748)" d="M 0 0m 0 0h 245.190144258"/><path fill="none" stroke="#000000" stroke-width="1" stroke-linecap="butt" stroke-linejoin="miter" stroke-miterlimit="4" stroke-dashoffset="0" stroke-dasharray="" transform="translate(268.687381265 161.498173228)" d="M 0 0m 0 0l 5.669291339 2.125984252l -5.669291339 2.125984252"/><path fill="none" stroke="#000000" stroke-width="1" stroke-linecap="butt" stroke-linejoin="miter" stroke-miterlimit="4" transform="translate(32.001145669 160.789511811)" d="M 0 0m 0 5.669291339v -5.669291339"/><path fill="none" transform="translate(28.811145669 170.710771654)" d="M 0 0m 0 0h 6.38v 7.37h -6.38v -7.37Z "/><g transform="translate(28.811145559 170.710771543)"><g transform="matrix(1 0 0 -1 0 7.282)"><use xlink:href="#g42D816FE47F5E280BA401E8EC916AEBD" x="0" y="0" fill="#000000" fill-rule="nonzero"/></g></g><path fill="none" stroke="#000000" stroke-width="1" stroke-linecap="butt" stroke-linejoin="miter" stroke-miterlimit="4" transform="translate(66.889092368 160.789511811)" d="M 0 0m 0 5.669291339v -5.669291339"/><path fill="none" transform="translate(60.509092368 170.710771654)" d="M 0 0m 0 0h 12.76v 7.37h -12.76v -7.37Z "/><g transform="translate(60.50909229 170.710771543)"><g transform="matrix(1 0 0 -1 0 7.282)"><use xlink:href="#g5B80D8A310BA63B987ECB2626BE4971A" x="0" y="0" fill="#000000" fill-rule="nonzero"/></g><g transform="matrix(1 0 0 -1 6.38 7.282)"><use xlink:href="#g42D816FE47F5E280BA401E8EC916AEBD" x="0" y="0" fill="#000000" fill-rule="nonzero"/></g></g><path fill="none" stroke="#000000" stroke-width="1" stroke-linecap="butt" stroke-linejoin="miter" stroke-miterlimit="4" transform="translate(101.777039067 160.789511811)" d="M 0 0m 0 5.669291339v -5.669291339"/><path fill="none" transform="translate(95.397039067 170.710771654)" d="M 0 0m 0 0h 12.76v 7.37h -12.76v -7.37Z "/><g transform="translate(95.397038988 170.710771543)"><g transform="matrix(1 0 0 -1 0 7.282)"><use xlink:href="#gF33465DF61AEC2C91C9269A44E9C5550" x="0" y="0" fill="#000000" fill-rule="nonzero"/></g><g transform="matrix(1 0 0 -1 6.38 7.282)"><use xlink:href="#g42D816FE47F5E280BA401E8EC916AEBD" x="0" y="0" fill="#000000" fill-rule="nonzero"/></g></g><path fill="none" stroke="#000000" stroke-width="1" stroke-linecap="butt" stroke-linejoin="miter" stroke-miterlimit="4" transform="translate(136.664985766 160.789511811)" d="M 0 0m 0 5.669291339v -5.669291339"/><path fill="none" transform="translate(130.284985766 170.710771654)" d="M 0 0m 0 0h 12.76v 7.37h -12.76v -7.37Z "/><g transform="translate(130.284985687 170.710771543)"><g transform="matrix(1 0 0 -1 0 7.282)"><use xlink:href="#g4065C98775822A2D438662EAEE297F1D" x="0" y="0" fill="#000000" fill-rule="nonzero"/></g><g transform="matrix(1 0 0 -1 6.38 7.282)"><use xlink:href="#g42D816FE47F5E280BA401E8EC916AEBD" x="0" y="0" fill="#000000" fill-rule="nonzero"/></g></g><path fill="none" stroke="#000000" stroke-width="1" stroke-linecap="butt" stroke-linejoin="miter" stroke-miterlimit="4" transform="translate(171.552932465 160.789511811)" d="M 0 0m 0 5.669291339v -5.669291339"/><path fill="none" transform="translate(165.172932465 170.710771654)" d="M 0 0m 0 0h 12.76v 7.37h -12.76v -7.37Z "/><g transform="translate(165.172932386 170.710771543)"><g transform="matrix(1 0 0 -1 0 7.282)"><use xlink:href="#g4E546F2B196C04380773CE30D47169C8" x="0" y="0" fill="#000000" fill-rule="nonzero"/></g><g transform="matrix(1 0 0 -1 6.38 7.282)"><use xlink:href="#g42D816FE47F5E280BA401E8EC916AEBD" x="0" y="0" fill="#000000" fill-rule="nonzero"/></g></g><path fill="none" stroke="#000000" stroke-width="1" stroke-linecap="butt" stroke-linejoin="miter" stroke-miterlimit="4" transform="translate(206.440879164 160.789511811)" d="M 0 0m 0 5.669291339v -5.669291339"/><path fill="none" transform="translate(200.060879164 170.710771654)" d="M 0 0m 0 0h 12.76v 7.37h -12.76v -7.37Z "/><g transform="translate(200.060879085 170.710771543)"><g transform="matrix(1 0 0 -1 0 7.282)"><use xlink:href="#g63889319F550A9DF8551E74CC272AF1E" x="0" y="0" fill="#000000" fill-rule="nonzero"/></g><g transform="matrix(1 0 0 -1 6.38 7.282)"><use xlink:href="#g42D816FE47F5E280BA401E8EC916AEBD" x="0" y="0" fill="#000000" fill-rule="nonzero"/></g></g><path fill="none" stroke="#000000" stroke-width="1" stroke-linecap="butt" stroke-linejoin="miter" stroke-miterlimit="4" transform="translate(241.328825863 160.789511811)" d="M 0 0m 0 5.669291339v -5.669291339"/><path fill="none" transform="translate(234.948825863 170.710771654)" d="M 0 0m 0 0h 12.76v 7.37h -12.76v -7.37Z "/><g transform="translate(234.948825784 170.710771543)"><g transform="matrix(1 0 0 -1 0 7.282)"><use xlink:href="#g94C810941F70236CE1CFA5F941036EA1" x="0" y="0" fill="#000000" fill-rule="nonzero"/></g><g transform="matrix(1 0 0 -1 6.38 7.282)"><use xlink:href="#g42D816FE47F5E280BA401E8EC916AEBD" x="0" y="0" fill="#000000" fill-rule="nonzero"/></g></g><path fill="none" transform="translate(254.715673228 166.45880315)" d="M 0 0m 0 0h 42.13v 8.3765h -42.13v -8.3765Z "/><g transform="translate(254.715673197 166.458803087)"><g transform="matrix(1 0 0 -1 0 7.8815)"><use xlink:href="#g2B15AD529FA044BA17B31E63858CCCF4" x="0" y="0" fill="#000000" fill-rule="nonzero"/><use xlink:href="#g66D92719C3186E4CA8DDCD575E0A27AA" x="6.6055" y="0" fill="#000000" fill-rule="nonzero"/><use xlink:href="#g5B2119C9EFA9450C3FB35BCC12E8D91C" x="9.6855" y="0" fill="#000000" fill-rule="nonzero"/><use xlink:href="#g27CBD932357FC0F7ADD1FD39BB9127D" x="16.797" y="0" fill="#000000" fill-rule="nonzero"/><use xlink:href="#gE0CA58C6A9EE5B87940730884360BAA9" x="21.769" y="0" fill="#000000" fill-rule="nonzero"/><use xlink:href="#gB814AC5DAF153C4FD7E9628E643E98D0" x="27.907" y="0" fill="#000000" fill-rule="nonzero"/><use xlink:href="#gFB6003BA82E5DA9C8561D09F8117F405" x="33.374" y="0" fill="#000000" fill-rule="nonzero"/><use xlink:href="#g8462BBF92C9A252A698AF9A4C6BCDE90" x="39.534" y="0" fill="#000000" fill-rule="nonzero"/></g></g><path fill="none" stroke="#000000" stroke-width="1" stroke-linecap="butt" stroke-linejoin="miter" stroke-miterlimit="4" transform="translate(32.001145669 6.308028971)" d="M 0 0m 0 160.150774179v -160.150774179"/><path fill="none" stroke="#000000" stroke-width="1" stroke-linecap="butt" stroke-linejoin="miter" stroke-miterlimit="4" stroke-dashoffset="0" stroke-dasharray="" transform="translate(29.875161417 6.308000625)" d="M 0 0m 0 5.669291339l 2.125984252 -5.669291339l 2.125984252 5.669291339"/><path fill="none" stroke="#000000" stroke-width="1" stroke-linecap="butt" stroke-linejoin="miter" stroke-miterlimit="4" transform="translate(29.1665 163.62415748)" d="M 0 0m 0 0h 5.669291339"/><path fill="none" transform="translate(12.154531496 159.93915748)" d="M 0 0m 0 0h 12.76v 7.37h -12.76v -7.37Z "/><g transform="translate(12.154531417 159.93915737)"><g transform="matrix(1 0 0 -1 0 7.282)"><use xlink:href="#g94C810941F70236CE1CFA5F941036EA1" x="0" y="0" fill="#000000" fill-rule="nonzero"/></g><g transform="matrix(1 0 0 -1 6.38 7.282)"><use xlink:href="#g42D816FE47F5E280BA401E8EC916AEBD" x="0" y="0" fill="#000000" fill-rule="nonzero"/></g></g><path fill="none" stroke="#000000" stroke-width="1" stroke-linecap="butt" stroke-linejoin="miter" stroke-miterlimit="4" transform="translate(29.1665 140.002110236)" d="M 0 0m 0 0h 5.669291339"/><path fill="none" transform="translate(12.154531496 136.317110236)" d="M 0 0m 0 0h 12.76v 7.37h -12.76v -7.37Z "/><g transform="translate(12.154531417 136.317110126)"><g transform="matrix(1 0 0 -1 0 7.282)"><use xlink:href="#g94C810941F70236CE1CFA5F941036EA1" x="0" y="0" fill="#000000" fill-rule="nonzero"/></g><g transform="matrix(1 0 0 -1 6.38 7.282)"><use xlink:href="#g63889319F550A9DF8551E74CC272AF1E" x="0" y="0" fill="#000000" fill-rule="nonzero"/></g></g><path fill="none" stroke="#000000" stroke-width="1" stroke-linecap="butt" stroke-linejoin="miter" stroke-miterlimit="4" transform="translate(29.1665 116.380062992)" d="M 0 0m 0 0h 5.669291339"/><path fill="none" transform="translate(12.154531496 112.695062992)" d="M 0 0m 0 0h 12.76v 7.37h -12.76v -7.37Z "/><g transform="translate(12.154531417 112.695062882)"><g transform="matrix(1 0 0 -1 0 7.282)"><use xlink:href="#gDFAF03F33CBF07D3FEA650B181C10B69" x="0" y="0" fill="#000000" fill-rule="nonzero"/></g><g transform="matrix(1 0 0 -1 6.38 7.282)"><use xlink:href="#g42D816FE47F5E280BA401E8EC916AEBD" x="0" y="0" fill="#000000" fill-rule="nonzero"/></g></g><path fill="none" stroke="#000000" stroke-width="1" stroke-linecap="butt" stroke-linejoin="miter" stroke-miterlimit="4" transform="translate(29.1665 92.758015748)" d="M 0 0m 0 0h 5.669291339"/><path fill="none" transform="translate(12.154531496 89.073015748)" d="M 0 0m 0 0h 12.76v 7.37h -12.76v -7.37Z "/><g transform="translate(12.154531417 89.073015638)"><g transform="matrix(1 0 0 -1 0 7.282)"><use xlink:href="#gDFAF03F33CBF07D3FEA650B181C10B69" x="0" y="0" fill="#000000" fill-rule="nonzero"/></g><g transform="matrix(1 0 0 -1 6.38 7.282)"><use xlink:href="#g63889319F550A9DF8551E74CC272AF1E" x="0" y="0" fill="#000000" fill-rule="nonzero"/></g></g><path fill="none" stroke="#000000" stroke-width="1" stroke-linecap="butt" stroke-linejoin="miter" stroke-miterlimit="4" transform="translate(29.1665 69.135968504)" d="M 0 0m 0 0h 5.669291339"/><path fill="none" transform="translate(12.154531496 65.450968504)" d="M 0 0m 0 0h 12.76v 7.37h -12.76v -7.37Z "/><g transform="translate(12.154531417 65.450968394)"><g transform="matrix(1 0 0 -1 0 7.282)"><use xlink:href="#g8A016244ED88B943537A526DBF45A58B" x="0" y="0" fill="#000000" fill-rule="nonzero"/></g><g transform="matrix(1 0 0 -1 6.38 7.282)"><use xlink:href="#g42D816FE47F5E280BA401E8EC916AEBD" x="0" y="0" fill="#000000" fill-rule="nonzero"/></g></g><path fill="none" stroke="#000000" stroke-width="1" stroke-linecap="butt" stroke-linejoin="miter" stroke-miterlimit="4" transform="translate(29.1665 45.51392126)" d="M 0 0m 0 0h 5.669291339"/><path fill="none" transform="translate(12.154531496 41.82892126)" d="M 0 0m 0 0h 12.76v 7.37h -12.76v -7.37Z "/><g transform="translate(12.154531417 41.82892115)"><g transform="matrix(1 0 0 -1 0 7.282)"><use xlink:href="#g8A016244ED88B943537A526DBF45A58B" x="0" y="0" fill="#000000" fill-rule="nonzero"/></g><g transform="matrix(1 0 0 -1 6.38 7.282)"><use xlink:href="#g63889319F550A9DF8551E74CC272AF1E" x="0" y="0" fill="#000000" fill-rule="nonzero"/></g></g><path fill="none" stroke="#000000" stroke-width="1" stroke-linecap="butt" stroke-linejoin="miter" stroke-miterlimit="4" transform="translate(29.1665 21.891874016)" d="M 0 0m 0 0h 5.669291339"/><path fill="none" transform="translate(12.154531496 18.206874016)" d="M 0 0m 0 0h 12.76v 7.37h -12.76v -7.37Z "/><g transform="translate(12.154531417 18.206873906)"><g transform="matrix(1 0 0 -1 0 7.282)"><use xlink:href="#g545E946D68CCE553B74DB83731D37AC1" x="0" y="0" fill="#000000" fill-rule="nonzero"/></g><g transform="matrix(1 0 0 -1 6.38 7.282)"><use xlink:href="#g42D816FE47F5E280BA401E8EC916AEBD" x="0" y="0" fill="#000000" fill-rule="nonzero"/></g></g><path fill="none" d="M 0 0m 0 0h 29.1665v 9.768h -29.1665v -9.768Z "/><g transform="translate(-6.3e-8 -9.4e-8)"><g transform="matrix(1 0 0 -1 0 7.8815)"><use xlink:href="#gB5CBFD8ED6BA68DC20528D131EAC9AA7" x="0" y="0" fill="#000000" fill-rule="nonzero"/><use xlink:href="#gF457AFAEE3170D0B4FA719A7653C3D15" x="6.2645" y="0" fill="#000000" fill-rule="nonzero"/><use xlink:href="#gE60F4A6B0ED54B776ACD2EE2C9C6347B" x="11.0275" y="0" fill="#000000" fill-rule="nonzero"/><use xlink:href="#g5FBFB3CD832EE821566533E138CF66E4" x="17.193" y="0" fill="#000000" fill-rule="nonzero"/><use xlink:href="#gC08EB52A90F6C8802414B8D7844762B4" x="23.001" y="0" fill="#000000" fill-rule="nonzero"/><use xlink:href="#g8462BBF92C9A252A698AF9A4C6BCDE90" x="26.5705" y="0" fill="#000000" fill-rule="nonzero"/></g></g><path fill="none" stroke="#c1002a" stroke-width="1" stroke-linecap="butt" stroke-linejoin="miter" stroke-miterlimit="4" transform="translate(32.001145669 58.359397394)" d="M 0 0m 0 41.252745172l 226.771653543 -41.252745172"/><path fill="none" transform="translate(59.213744094 57.324944882)" d="M 0 0m 0 51.023622047l 23.723803755 -15.118110236l 16.048455482 -15.590551181l 28.608116293 2.834645669l 17.792852816 -1.417322835l 23.026044821 -21.732283465l 26.165960024 8.976377953l 41.516656572 12.283464567"/><path fill="#000000" fill-rule="nonzero" stroke="#000000" stroke-width="1" stroke-linecap="butt" stroke-linejoin="miter" stroke-miterlimit="4" transform="translate(57.512956693 106.647779528)" d="M 0 0m 1.700787402 0c -0.938467276 0 -1.700787402 0.762320126 -1.700787402 1.700787402c 0 0.938467276 0.762320126 1.700787402 1.700787402 1.700787402c 0.938467276 0 1.700787402 -0.762320126 1.700787402 -1.700787402c 0 -0.938467276 -0.762320126 -1.700787402 -1.700787402 -1.700787402Z "/><path fill="#000000" fill-rule="nonzero" stroke="#000000" stroke-width="1" stroke-linecap="butt" stroke-linejoin="miter" stroke-miterlimit="4" transform="translate(81.236760448 91.529669291)" d="M 0 0m 1.700787402 0c -0.938467276 0 -1.700787402 0.762320126 -1.700787402 1.700787402c 0 0.938467276 0.762320126 1.700787402 1.700787402 1.700787402c 0.938467276 0 1.700787402 -0.762320126 1.700787402 -1.700787402c 0 -0.938467276 -0.762320126 -1.700787402 -1.700787402 -1.700787402Z "/><path fill="#000000" fill-rule="nonzero" stroke="#000000" stroke-width="1" stroke-linecap="butt" stroke-linejoin="miter" stroke-miterlimit="4" transform="translate(97.28521593 75.93911811)" d="M 0 0m 1.700787402 0c -0.938467276 0 -1.700787402 0.762320126 -1.700787402 1.700787402c 0 0.938467276 0.762320126 1.700787402 1.700787402 1.700787402c 0.938467276 0 1.700787402 -0.762320126 1.700787402 -1.700787402c 0 -0.938467276 -0.762320126 -1.700787402 -1.700787402 -1.700787402Z "/><path fill="#000000" fill-rule="nonzero" stroke="#000000" stroke-width="1" stroke-linecap="butt" stroke-linejoin="miter" stroke-miterlimit="4" transform="translate(125.893332223 78.77376378)" d="M 0 0m 1.700787402 0c -0.938467276 0 -1.700787402 0.762320126 -1.700787402 1.700787402c 0 0.938467276 0.762320126 1.700787402 1.700787402 1.700787402c 0.938467276 0 1.700787402 -0.762320126 1.700787402 -1.700787402c 0 -0.938467276 -0.762320126 -1.700787402 -1.700787402 -1.700787402Z "/><path fill="#000000" fill-rule="nonzero" stroke="#000000" stroke-width="1" stroke-linecap="butt" stroke-linejoin="miter" stroke-miterlimit="4" transform="translate(143.686185039 77.356440945)" d="M 0 0m 1.700787402 0c -0.938467276 0 -1.700787402 0.762320126 -1.700787402 1.700787402c 0 0.938467276 0.762320126 1.700787402 1.700787402 1.700787402c 0.938467276 0 1.700787402 -0.762320126 1.700787402 -1.700787402c 0 -0.938467276 -0.762320126 -1.700787402 -1.700787402 -1.700787402Z "/><path fill="#000000" fill-rule="nonzero" stroke="#000000" stroke-width="1" stroke-linecap="butt" stroke-linejoin="miter" stroke-miterlimit="4" transform="translate(166.712229861 55.62415748)" d="M 0 0m 1.700787402 0c -0.938467276 0 -1.700787402 0.762320126 -1.700787402 1.700787402c 0 0.938467276 0.762320126 1.700787402 1.700787402 1.700787402c 0.938467276 0 1.700787402 -0.762320126 1.700787402 -1.700787402c 0 -0.938467276 -0.762320126 -1.700787402 -1.700787402 -1.700787402Z "/><path fill="#000000" fill-rule="nonzero" stroke="#000000" stroke-width="1" stroke-linecap="butt" stroke-linejoin="miter" stroke-miterlimit="4" transform="translate(192.878189885 64.600535433)" d="M 0 0m 1.700787402 0c -0.938467276 0 -1.700787402 0.762320126 -1.700787402 1.700787402c 0 0.938467276 0.762320126 1.700787402 1.700787402 1.700787402c 0.938467276 0 1.700787402 -0.762320126 1.700787402 -1.700787402c 0 -0.938467276 -0.762320126 -1.700787402 -1.700787402 -1.700787402Z "/><path fill="#000000" fill-rule="nonzero" stroke="#000000" stroke-width="1" stroke-linecap="butt" stroke-linejoin="miter" stroke-miterlimit="4" transform="translate(234.394846457 76.884)" d="M 0 0m 1.700787402 0c -0.938467276 0 -1.700787402 0.762320126 -1.700787402 1.700787402c 0 0.938467276 0.762320126 1.700787402 1.700787402 1.700787402c 0.938467276 0 1.700787402 -0.762320126 1.700787402 -1.700787402c 0 -0.938467276 -0.762320126 -1.700787402 -1.700787402 -1.700787402Z "/><path fill="#cbf2cf" fill-rule="nonzero" stroke="#c1002a" stroke-width="1.6" stroke-linecap="butt" stroke-linejoin="miter" stroke-miterlimit="4" transform="translate(134.898783465 75.868251969)" d="M 0 0m 0 8.503937008l 8.503937008 -8.503937008"/><path fill="#cbf2cf" fill-rule="nonzero" stroke="#c1002a" stroke-width="1.6" stroke-linecap="butt" stroke-linejoin="miter" stroke-miterlimit="4" transform="translate(134.898783465 75.868251969)" d="M 0 0m 0 0l 8.503937008 8.503937008"/></g><g transform="translate(21.867836614 185.230771654)"><g transform="matrix(1 0 0 -1 1.0384 7.8815)"><use xlink:href="#gC086F5205D4BE11F02D59855BB95536B" x="0" y="0" fill="#000000" fill-rule="nonzero"/><use xlink:href="#g8105CCAD23AC3F816555ADE218A87BA3" x="6.1985" y="0" fill="#000000" fill-rule="nonzero"/><use xlink:href="#gB434E4DE6948F304E8C2835D7E7D2FF2" x="8.8385" y="0" fill="#000000" fill-rule="nonzero"/><use xlink:href="#g8462BBF92C9A252A698AF9A4C6BCDE90" x="14.5585" y="0" fill="#000000" fill-rule="nonzero"/><use xlink:href="#g858966C001BCFF83B2F1A65D32F9CBAB" x="19.9705" y="0" fill="#000000" fill-rule="nonzero"/><use xlink:href="#g8462BBF92C9A252A698AF9A4C6BCDE90" x="26.3505" y="0" fill="#000000" fill-rule="nonzero"/><use xlink:href="#g8838A5AFE8A4C4BD9F956A0C4425BE0D" x="31.7625" y="0" fill="#000000" fill-rule="nonzero"/><use xlink:href="#gD2AA63ACF3A30583767DC45F0812F7C0" x="40.9585" y="0" fill="#000000" fill-rule="nonzero"/><use xlink:href="#gC08EB52A90F6C8802414B8D7844762B4" x="49.2085" y="0" fill="#000000" fill-rule="nonzero"/><use xlink:href="#g9C674704BA9B427AEB9EED7D565D1F0D" x="52.987" y="0" fill="#000000" fill-rule="nonzero"/><use xlink:href="#g8105CCAD23AC3F816555ADE218A87BA3" x="59.224" y="0" fill="#000000" fill-rule="nonzero"/><use xlink:href="#g4BE1DD0D0526A7283DD8BB16EC018A1" x="61.864" y="0" fill="#000000" fill-rule="nonzero"/><use xlink:href="#gBBFBBD718543D3A9AA39C774BA417C3F" x="65.78" y="0" fill="#000000" fill-rule="nonzero"/><use xlink:href="#gE8D63FD2986C5E245894841A492C47DD" x="74.404" y="0" fill="#000000" fill-rule="nonzero"/><use xlink:href="#gBBFBBD718543D3A9AA39C774BA417C3F" x="80.564" y="0" fill="#000000" fill-rule="nonzero"/><use xlink:href="#gC08EB52A90F6C8802414B8D7844762B4" x="89.188" y="0" fill="#000000" fill-rule="nonzero"/><use xlink:href="#g5FBFB3CD832EE821566533E138CF66E4" x="92.9665" y="0" fill="#000000" fill-rule="nonzero"/><use xlink:href="#gB434E4DE6948F304E8C2835D7E7D2FF2" x="98.7745" y="0" fill="#000000" fill-rule="nonzero"/><use xlink:href="#gC08EB52A90F6C8802414B8D7844762B4" x="104.4945" y="0" fill="#000000" fill-rule="nonzero"/><use xlink:href="#gBBFBBD718543D3A9AA39C774BA417C3F" x="108.273" y="0" fill="#000000" fill-rule="nonzero"/><use xlink:href="#gF457AFAEE3170D0B4FA719A7653C3D15" x="114.081" y="0" fill="#000000" fill-rule="nonzero"/><use xlink:href="#gF457AFAEE3170D0B4FA719A7653C3D15" x="118.844" y="0" fill="#000000" fill-rule="nonzero"/><use xlink:href="#g8105CCAD23AC3F816555ADE218A87BA3" x="123.607" y="0" fill="#000000" fill-rule="nonzero"/><use xlink:href="#g9C674704BA9B427AEB9EED7D565D1F0D" x="126.247" y="0" fill="#000000" fill-rule="nonzero"/><use xlink:href="#gD2DE1FC819581D5FA35DA0AF00F968BF" x="132.484" y="0" fill="#000000" fill-rule="nonzero"/><use xlink:href="#gE8D63FD2986C5E245894841A492C47DD" x="141.438" y="0" fill="#000000" fill-rule="nonzero"/><use xlink:href="#gBBFBBD718543D3A9AA39C774BA417C3F" x="147.598" y="0" fill="#000000" fill-rule="nonzero"/><use xlink:href="#gF457AFAEE3170D0B4FA719A7653C3D15" x="153.406" y="0" fill="#000000" fill-rule="nonzero"/><use xlink:href="#gE0CA58C6A9EE5B87940730884360BAA9" x="160.985" y="0" fill="#000000" fill-rule="nonzero"/><use xlink:href="#gEE9A066A740F79888974EE80C1B35719" x="167.123" y="0" fill="#000000" fill-rule="nonzero"/><use xlink:href="#g8105CCAD23AC3F816555ADE218A87BA3" x="173.2555" y="0" fill="#000000" fill-rule="nonzero"/><use xlink:href="#g4BE1DD0D0526A7283DD8BB16EC018A1" x="175.8955" y="0" fill="#000000" fill-rule="nonzero"/><use xlink:href="#gE60F4A6B0ED54B776ACD2EE2C9C6347B" x="182.655" y="0" fill="#000000" fill-rule="nonzero"/><use xlink:href="#gB814AC5DAF153C4FD7E9628E643E98D0" x="188.8205" y="0" fill="#000000" fill-rule="nonzero"/><use xlink:href="#gBE78CF075B92E1C1839ADBCD8EB4597D" x="194.1555" y="0" fill="#000000" fill-rule="nonzero"/><use xlink:href="#gF457AFAEE3170D0B4FA719A7653C3D15" x="199.727" y="0" fill="#000000" fill-rule="nonzero"/><use xlink:href="#gF712410779C220ED54F30A780833386D" x="207.306" y="0" fill="#000000" fill-rule="nonzero"/><use xlink:href="#gC08EB52A90F6C8802414B8D7844762B4" x="210.155" y="0" fill="#000000" fill-rule="nonzero"/><use xlink:href="#gA7578BF7DAAAB8AA6DEB5B29F8EC0148" x="216.744" y="0" fill="#000000" fill-rule="nonzero"/><use xlink:href="#gE3FF9785F1E2A56DD0B7C469DB32B4B3" x="225.94" y="0" fill="#000000" fill-rule="nonzero"/><use xlink:href="#g23C28CDF4D43CF10AF563193FACB3521" x="232.32" y="0" fill="#000000" fill-rule="nonzero"/><use xlink:href="#g7ACF487B0F30E71345A1917C31F80622" x="234.817" y="0" fill="#000000" fill-rule="nonzero"/><use xlink:href="#gE3FF9785F1E2A56DD0B7C469DB32B4B3" x="241.197" y="0" fill="#000000" fill-rule="nonzero"/><use xlink:href="#g662B771DC9992A5B629DDF4470B6033E" x="247.577" y="0" fill="#000000" fill-rule="nonzero"/><use xlink:href="#g8462BBF92C9A252A698AF9A4C6BCDE90" x="250.514" y="0" fill="#000000" fill-rule="nonzero"/></g></g></g><defs><symbol id="g42D816FE47F5E280BA401E8EC916AEBD" overflow="visible"><path d="M 0 0m 0.33 3.938c 0 -2.695 1.188 -4.026 2.86 -4.026c 1.496 0 2.86 1.155 2.86 4.026c 0 2.761 -1.243 4.026 -2.86 4.026c -1.617 0 -2.86 -1.221 -2.86 -4.026Z m 1.012 0c 0 1.287 0.264 3.201 1.848 3.201c 1.595 0 1.848 -1.969 1.848 -3.201c 0 -1.331 -0.286 -3.19 -1.848 -3.19c -1.782 0 -1.848 2.431 -1.848 3.19Z "/></symbol><symbol id="g5B80D8A310BA63B987ECB2626BE4971A" overflow="visible"><path d="M 0 0m 0.902 5.874l 0.308 -0.429c 0.044 -0.077 0.154 -0.11 0.253 -0.11c 0.077 0 0.154 0.022 0.209 0.077l 1.408 1.199c -0.011 -0.165 -0.022 -0.33 -0.022 -0.495v -5.368h -1.683v -0.748h 4.224v 0.748h -1.551v 7.15h -0.792Z "/></symbol><symbol id="gF33465DF61AEC2C91C9269A44E9C5550" overflow="visible"><path d="M 0 0m 0.517 0h 5.258v 0.594c 0 0.209 -0.132 0.33 -0.341 0.33h -2.64c -0.33 0 -0.616 -0.055 -0.88 -0.132l 2.068 2.134c 0.913 0.935 1.639 1.694 1.639 2.849c 0 1.122 -0.748 2.189 -2.365 2.189c -1.518 0 -2.387 -0.88 -2.574 -2.222c 0 0 0.55 -0.099 0.605 -0.099c 0.22 0 0.33 0.11 0.396 0.308c 0.154 0.682 0.682 1.177 1.518 1.177c 0.869 0 1.419 -0.506 1.419 -1.386c 0 -0.99 -0.649 -1.694 -1.397 -2.453l -2.519 -2.541c -0.099 -0.099 -0.187 -0.231 -0.187 -0.418Z "/></symbol><symbol id="g4065C98775822A2D438662EAEE297F1D" overflow="visible"><path d="M 0 0m 0.473 1.969c 0.33 -0.99 0.814 -2.057 2.673 -2.057c 1.265 0 2.618 0.748 2.618 2.354c 0 1.078 -0.627 1.639 -1.54 1.87c 0.781 0.275 1.364 0.77 1.364 1.815c 0 0.979 -0.704 2.013 -2.299 2.013c -2.09 0 -2.497 -1.683 -2.574 -2.222c 0 0 0.583 -0.099 0.616 -0.099c 0.22 0 0.319 0.11 0.385 0.308c 0.154 0.693 0.682 1.177 1.518 1.177c 0.869 0 1.397 -0.473 1.397 -1.342c 0 -1.023 -0.803 -1.386 -1.859 -1.386v -0.715c 1.199 0 2.013 -0.297 2.013 -1.452c 0 -0.638 -0.473 -1.485 -1.661 -1.485c -0.979 0 -1.386 0.594 -1.672 1.254c -0.055 0.132 -0.176 0.187 -0.319 0.187c -0.077 0 -0.165 -0.011 -0.66 -0.22Z "/></symbol><symbol id="g4E546F2B196C04380773CE30D47169C8" overflow="visible"><path d="M 0 0m 0.132 2.794l 0.088 -0.506c 0.022 -0.121 0.154 -0.22 0.297 -0.22h 3.498v -2.068h 0.858v 2.068h 0.979c 0.132 0 0.22 0.088 0.22 0.22v 0.55h -1.199v 5.038h -0.913Z m 1.056 0.044l 2.871 3.916c -0.022 -0.209 -0.044 -0.44 -0.044 -0.66v -3.256Z "/></symbol><symbol id="g63889319F550A9DF8551E74CC272AF1E" overflow="visible"><path d="M 0 0m 0.616 0.748c 0.275 -0.275 1.078 -0.836 2.2 -0.836c 1.342 0 2.827 0.825 2.827 2.75c 0 1.551 -1.067 2.376 -2.519 2.376c -0.341 0 -0.726 -0.044 -1.133 -0.132l 0.363 2.068h 2.475c 0.374 0 0.572 0.154 0.572 0.484v 0.418h -3.729l -0.638 -3.674l 0.616 -0.187c 0.385 0.132 0.814 0.209 1.276 0.209c 1.067 0 1.738 -0.539 1.738 -1.606c 0 -0.913 -0.517 -1.87 -1.804 -1.87c -0.979 0 -1.386 0.55 -1.683 0.55c -0.099 0 -0.187 -0.044 -0.253 -0.132Z "/></symbol><symbol id="g94C810941F70236CE1CFA5F941036EA1" overflow="visible"><path d="M 0 0m 0.594 2.596c 0 -1.419 0.814 -2.684 2.607 -2.684c 1.518 0 2.695 1.056 2.695 2.574c 0 1.265 -0.836 2.343 -2.332 2.343c -0.572 0 -0.99 -0.165 -1.342 -0.407c 0.121 0.187 0.242 0.33 0.385 0.506l 2.343 2.948h -0.88c -0.231 0 -0.418 -0.099 -0.517 -0.231l -2.002 -2.695c -0.759 -1.012 -0.957 -1.804 -0.957 -2.354Z m 0.946 -0.165c 0 0.957 0.682 1.65 1.716 1.65c 0.781 0 1.672 -0.462 1.672 -1.672c 0 -0.781 -0.517 -1.683 -1.749 -1.683c -1.045 0 -1.639 0.66 -1.639 1.705Z "/></symbol><symbol id="g2B15AD529FA044BA17B31E63858CCCF4" overflow="visible"><path d="M 0 0m 3.333 3.795q 0.4565 0 0.80575 0.121q 0.34925 0.121 0.5885 0.33825q 0.23925 0.21725 0.36025 0.51975q 0.121 0.3025 0.121 0.6655q 0 0.7535 -0.46475 1.177q -0.46475 0.4235 -1.41075 0.4235h -1.265v -3.245h 1.265Z m 0 4.0865q 0.748 0 1.30075 -0.17325q 0.55275 -0.17325 0.91575 -0.49225q 0.363 -0.319 0.54175 -0.77q 0.17875 -0.451 0.17875 -1.0065q 0 -0.55 -0.1925 -1.0065q -0.1925 -0.4565 -0.56375 -0.7865q -0.37125 -0.33 -0.9185 -0.51425q -0.54725 -0.18425 -1.26225 -0.18425h -1.265v -2.948h -1.0615v 7.8815h 2.3265Z "/></symbol><symbol id="g66D92719C3186E4CA8DDCD575E0A27AA" overflow="visible"><path d="M 0 0m 2.0735 0h -1.067v 7.8815h 1.067v -7.8815Z "/></symbol><symbol id="g5B2119C9EFA9450C3FB35BCC12E8D91C" overflow="visible"><path d="M 0 0m 3.773 0.847q 0.4565 0 0.7865 0.1045q 0.33 0.1045 0.54175 0.29425q 0.21175 0.18975 0.31075 0.451q 0.099 0.26125 0.099 0.57475q 0 0.6105 -0.4345 0.96525q -0.4345 0.35475 -1.3035 0.35475h -1.705v -2.7445h 1.705Z m -1.705 6.193v -2.6895h 1.408q 0.451 0 0.78375 0.099q 0.33275 0.099 0.55 0.275q 0.21725 0.176 0.32175 0.42625q 0.1045 0.25025 0.1045 0.54725q 0 0.6985 -0.418 1.02025q -0.418 0.32175 -1.298 0.32175h -1.452Z m 1.452 0.8415q 0.726 0 1.25125 -0.143q 0.52525 -0.143 0.8635 -0.407q 0.33825 -0.264 0.49775 -0.64625q 0.1595 -0.38225 0.1595 -0.86075q 0 -0.2915 -0.09075 -0.55825q -0.09075 -0.26675 -0.27225 -0.49775q -0.1815 -0.231 -0.45925 -0.41525q -0.27775 -0.18425 -0.65175 -0.29975q 0.869 -0.165 1.30625 -0.61875q 0.43725 -0.45375 0.43725 -1.19075q 0 -0.5005 -0.18425 -0.913q -0.18425 -0.4125 -0.539 -0.7095q -0.35475 -0.297 -0.87175 -0.45925q -0.517 -0.16225 -1.177 -0.16225h -2.783v 7.8815h 2.5135Z "/></symbol><symbol id="g27CBD932357FC0F7ADD1FD39BB9127D" overflow="visible"><path d="M 0 0m 1.3145 -0.1155q -0.0715 -0.1925 -0.22275 -0.286q -0.15125 -0.0935 -0.31075 -0.0935h -0.4125l 3.3055 8.2335q 0.066 0.176 0.20075 0.2695q 0.13475 0.0935 0.31075 0.0935h 0.418l -3.289 -8.217Z "/></symbol><symbol id="gE0CA58C6A9EE5B87940730884360BAA9" overflow="visible"><path d="M 0 0m 1.76 4.829q 0.3575 0.3795 0.792 0.605q 0.4345 0.2255 1.001 0.2255q 0.4565 0 0.80575 -0.15125q 0.34925 -0.15125 0.583 -0.429q 0.23375 -0.27775 0.35475 -0.66825q 0.121 -0.3905 0.121 -0.8635v -3.5475h -0.9845v 3.5475q 0 0.6325 -0.28875 0.98175q -0.28875 0.34925 -0.87725 0.34925q -0.4345 0 -0.81125 -0.209q -0.37675 -0.209 -0.69575 -0.5665v -4.103h -0.9845v 8.1015h 0.9845v -3.2725Z "/></symbol><symbol id="gB814AC5DAF153C4FD7E9628E643E98D0" overflow="visible"><path d="M 0 0m 3.795 2.508q -0.6765 -0.022 -1.15225 -0.10725q -0.47575 -0.08525 -0.7755 -0.22275q -0.29975 -0.1375 -0.4345 -0.3245q -0.13475 -0.187 -0.13475 -0.418q 0 -0.22 0.0715 -0.3795q 0.0715 -0.1595 0.19525 -0.26125q 0.12375 -0.10175 0.2915 -0.1485q 0.16775 -0.04675 0.36025 -0.04675q 0.2585 0 0.473 0.05225q 0.2145 0.05225 0.40425 0.15125q 0.18975 0.099 0.363 0.2365q 0.17325 0.1375 0.33825 0.3135v 1.155Z m -3.1625 2.277q 0.462 0.4455 0.9955 0.6655q 0.5335 0.22 1.1825 0.22q 0.4675 0 0.8305 -0.154q 0.363 -0.154 0.6105 -0.429q 0.2475 -0.275 0.374 -0.6655q 0.1265 -0.3905 0.1265 -0.858v -3.564h -0.4345q -0.143 0 -0.22 0.04675q -0.077 0.04675 -0.121 0.18425l -0.11 0.528q -0.22 -0.2035 -0.429 -0.36025q -0.209 -0.15675 -0.44 -0.264q -0.231 -0.10725 -0.49225 -0.165q -0.26125 -0.05775 -0.58025 -0.05775q -0.3245 0 -0.6105 0.09075q -0.286 0.09075 -0.49775 0.27225q -0.21175 0.1815 -0.3355 0.45925q -0.12375 0.27775 -0.12375 0.65725q 0 0.33 0.1815 0.63525q 0.1815 0.30525 0.5885 0.54175q 0.407 0.2365 1.0615 0.38775q 0.6545 0.15125 1.606 0.17325v 0.4345q 0 0.649 -0.2805 0.98175q -0.2805 0.33275 -0.8195 0.33275q -0.363 0 -0.60775 -0.09075q -0.24475 -0.09075 -0.4235 -0.2035q -0.17875 -0.11275 -0.308 -0.2035q -0.12925 -0.09075 -0.25575 -0.09075q -0.099 0 -0.1705 0.05225q -0.0715 0.05225 -0.121 0.12925l -0.176 0.3135Z "/></symbol><symbol id="gFB6003BA82E5DA9C8561D09F8117F405" overflow="visible"><path d="M 0 0m 1.76 1.342q 0.2695 -0.363 0.59125 -0.5115q 0.32175 -0.1485 0.70675 -0.1485q 0.7865 0 1.2045 0.5555q 0.418 0.5555 0.418 1.6555q 0 1.023 -0.37125 1.50425q -0.37125 0.48125 -1.05875 0.48125q -0.4785 0 -0.83325 -0.22q -0.35475 -0.22 -0.65725 -0.6215v -2.695Z m 0 3.4265q 0.352 0.407 0.79475 0.649q 0.44275 0.242 1.02025 0.242q 0.4895 0 0.88275 -0.187q 0.39325 -0.187 0.66825 -0.54175q 0.275 -0.35475 0.42075 -0.86075q 0.14575 -0.506 0.14575 -1.1385q 0 -0.6765 -0.165 -1.232q -0.165 -0.5555 -0.47575 -0.94875q -0.31075 -0.39325 -0.75625 -0.6105q -0.4455 -0.21725 -1.001 -0.21725q -0.55 0 -0.92675 0.20625q -0.37675 0.20625 -0.65725 0.58575l -0.0495 -0.506q -0.044 -0.209 -0.253 -0.209h -0.6325v 8.1015h 0.9845v -3.333Z "/></symbol><symbol id="g8462BBF92C9A252A698AF9A4C6BCDE90" overflow="visible"><path d="M 0 0m 0.6105 0.605q 0 0.143 0.05225 0.2695q 0.05225 0.1265 0.143 0.22q 0.09075 0.0935 0.21725 0.1485q 0.1265 0.055 0.2695 0.055q 0.143 0 0.2695 -0.055q 0.1265 -0.055 0.22 -0.1485q 0.0935 -0.0935 0.1485 -0.22q 0.055 -0.1265 0.055 -0.2695q 0 -0.1485 -0.055 -0.27225q -0.055 -0.12375 -0.1485 -0.21725q -0.0935 -0.0935 -0.22 -0.14575q -0.1265 -0.05225 -0.2695 -0.05225q -0.143 0 -0.2695 0.05225q -0.1265 0.05225 -0.21725 0.14575q -0.09075 0.0935 -0.143 0.21725q -0.05225 0.12375 -0.05225 0.27225Z "/></symbol><symbol id="gDFAF03F33CBF07D3FEA650B181C10B69" overflow="visible"><path d="M 0 0m 0.594 7.216c 0 -0.121 0.121 -0.242 0.242 -0.242h 4.114c -0.121 -0.143 -0.231 -0.297 -0.319 -0.473l -3.311 -6.501h 0.704c 0.275 0 0.44 0.165 0.528 0.352l 3.278 6.578c 0.066 0.143 0.11 0.286 0.11 0.506v 0.44h -5.346Z "/></symbol><symbol id="g8A016244ED88B943537A526DBF45A58B" overflow="visible"><path d="M 0 0m 0.528 2.156c 0 -1.199 0.902 -2.244 2.662 -2.244c 1.727 0 2.662 1.001 2.662 2.244c 0 1.111 -0.638 1.705 -1.54 1.958c 0.737 0.275 1.254 0.836 1.254 1.782c 0 1.166 -0.902 2.068 -2.376 2.068c -1.331 0 -2.376 -0.792 -2.376 -2.068c 0 -0.946 0.517 -1.507 1.254 -1.782c -0.913 -0.264 -1.54 -0.847 -1.54 -1.958Z m 1.012 0.022c 0 0.99 0.66 1.518 1.65 1.518c 0.99 0 1.65 -0.517 1.65 -1.518c 0 -0.902 -0.616 -1.485 -1.65 -1.485c -0.968 0 -1.65 0.517 -1.65 1.485Z m 0.22 3.696c 0 0.836 0.572 1.342 1.43 1.342c 0.792 0 1.43 -0.484 1.43 -1.342c 0 -0.88 -0.528 -1.397 -1.43 -1.397c -0.902 0 -1.43 0.517 -1.43 1.397Z "/></symbol><symbol id="g545E946D68CCE553B74DB83731D37AC1" overflow="visible"><path d="M 0 0m 0.572 5.5c 0 -1.463 1.012 -2.266 2.211 -2.266c 0.627 0 1.111 0.198 1.485 0.495c -0.132 -0.209 -0.264 -0.385 -0.418 -0.583l -2.398 -3.146h 0.902c 0.231 0 0.418 0.088 0.506 0.231l 1.914 2.772c 0.462 0.671 0.924 1.419 0.924 2.42c 0 1.496 -0.968 2.541 -2.508 2.541c -1.661 0 -2.618 -1.21 -2.618 -2.464Z m 0.99 0.066c 0 1.067 0.781 1.584 1.606 1.584c 0.968 0 1.584 -0.638 1.584 -1.606c 0 -0.836 -0.594 -1.562 -1.65 -1.562c -1.43 0 -1.54 1.21 -1.54 1.584Z "/></symbol><symbol id="gB5CBFD8ED6BA68DC20528D131EAC9AA7" overflow="visible"><path d="M 0 0m 5.8685 0.869l -0.0055 -0.869h -4.8565v 7.8815h 4.8565v -0.869h -3.7895v -2.618h 3.069v -0.836h -3.069v -2.6895h 3.795Z "/></symbol><symbol id="gF457AFAEE3170D0B4FA719A7653C3D15" overflow="visible"><path d="M 0 0m 4.0205 4.653q -0.066 -0.121 -0.2035 -0.121q -0.0825 0 -0.187 0.0605q -0.1045 0.0605 -0.25575 0.13475q -0.15125 0.07425 -0.36025 0.1375q -0.209 0.06325 -0.495 0.06325q -0.2475 0 -0.4455 -0.06325q -0.198 -0.06325 -0.33825 -0.17325q -0.14025 -0.11 -0.2145 -0.25575q -0.07425 -0.14575 -0.07425 -0.31625q 0 -0.2145 0.12375 -0.3575q 0.12375 -0.143 0.32725 -0.2475q 0.2035 -0.1045 0.462 -0.18425q 0.2585 -0.07975 0.53075 -0.1705q 0.27225 -0.09075 0.53075 -0.20075q 0.2585 -0.11 0.462 -0.275q 0.2035 -0.165 0.32725 -0.40425q 0.12375 -0.23925 0.12375 -0.57475q 0 -0.385 -0.1375 -0.71225q -0.1375 -0.32725 -0.407 -0.5665q -0.2695 -0.23925 -0.66 -0.37675q -0.3905 -0.1375 -0.902 -0.1375q -0.583 0 -1.056 0.18975q -0.473 0.18975 -0.803 0.48675l 0.231 0.374q 0.044 0.0715 0.1045 0.11q 0.0605 0.0385 0.154 0.0385q 0.099 0 0.209 -0.077q 0.11 -0.077 0.26675 -0.1705q 0.15675 -0.0935 0.38225 -0.1705q 0.2255 -0.077 0.561 -0.077q 0.286 0 0.5005 0.07425q 0.2145 0.07425 0.3575 0.20075q 0.143 0.1265 0.21175 0.2915q 0.06875 0.165 0.06875 0.352q 0 0.231 -0.12375 0.38225q -0.12375 0.15125 -0.32725 0.2585q -0.2035 0.10725 -0.46475 0.187q -0.26125 0.07975 -0.5335 0.16775q -0.27225 0.088 -0.5335 0.20075q -0.26125 0.11275 -0.46475 0.28325q -0.2035 0.1705 -0.32725 0.42075q -0.12375 0.25025 -0.12375 0.60775q 0 0.319 0.132 0.61325q 0.132 0.29425 0.385 0.517q 0.253 0.22275 0.6215 0.35475q 0.3685 0.132 0.8415 0.132q 0.55 0 0.98725 -0.17325q 0.43725 -0.17325 0.75625 -0.47575l -0.22 -0.3575Z "/></symbol><symbol id="gE60F4A6B0ED54B776ACD2EE2C9C6347B" overflow="visible"><path d="M 0 0m 1.76 1.342q 0.2695 -0.363 0.5885 -0.5115q 0.319 -0.1485 0.715 -0.1485q 0.781 0 1.199 0.5555q 0.418 0.5555 0.418 1.584q 0 0.5445 -0.09625 0.935q -0.09625 0.3905 -0.27775 0.64075q -0.1815 0.25025 -0.4455 0.36575q -0.264 0.1155 -0.5995 0.1155q -0.4785 0 -0.83875 -0.22q -0.36025 -0.22 -0.66275 -0.6215v -2.695Z m -0.0495 3.366q 0.352 0.4345 0.814 0.6985q 0.462 0.264 1.056 0.264q 0.484 0 0.8745 -0.18425q 0.3905 -0.18425 0.6655 -0.5445q 0.275 -0.36025 0.4235 -0.89375q 0.1485 -0.5335 0.1485 -1.2265q 0 -0.616 -0.165 -1.14675q -0.165 -0.53075 -0.47575 -0.9185q -0.31075 -0.38775 -0.759 -0.6105q -0.44825 -0.22275 -1.00925 -0.22275q -0.5115 0 -0.87725 0.17325q -0.36575 0.17325 -0.64625 0.48125v -2.464h -0.9845v 7.458h 0.5885q 0.209 0 0.2585 -0.2035l 0.088 -0.66Z "/></symbol><symbol id="g5FBFB3CD832EE821566533E138CF66E4" overflow="visible"><path d="M 0 0m 4.5045 3.3935q 0 0.341 -0.09625 0.62425q -0.09625 0.28325 -0.2805 0.4895q -0.18425 0.20625 -0.44825 0.319q -0.264 0.11275 -0.5995 0.11275q -0.704 0 -1.11375 -0.40975q -0.40975 -0.40975 -0.50875 -1.13575h 3.047Z m 0.792 -2.6125q -0.1815 -0.22 -0.4345 -0.38225q -0.253 -0.16225 -0.54175 -0.26675q -0.28875 -0.1045 -0.59675 -0.15675q -0.308 -0.05225 -0.6105 -0.05225q -0.5775 0 -1.06425 0.19525q -0.48675 0.19525 -0.8415 0.572q -0.35475 0.37675 -0.55275 0.93225q -0.198 0.5555 -0.198 1.276q 0 0.583 0.17875 1.089q 0.17875 0.506 0.51425 0.87725q 0.3355 0.37125 0.8195 0.583q 0.484 0.21175 1.089 0.21175q 0.5005 0 0.92675 -0.16775q 0.42625 -0.16775 0.737 -0.484q 0.31075 -0.31625 0.48675 -0.781q 0.176 -0.46475 0.176 -1.05875q 0 -0.231 -0.0495 -0.308q -0.0495 -0.077 -0.187 -0.077h -3.7235q 0.0165 -0.528 0.14575 -0.9185q 0.12925 -0.3905 0.36025 -0.65175q 0.231 -0.26125 0.55 -0.3905q 0.319 -0.12925 0.715 -0.12925q 0.3685 0 0.63525 0.08525q 0.26675 0.08525 0.45925 0.18425q 0.1925 0.099 0.32175 0.18425q 0.12925 0.08525 0.22275 0.08525q 0.121 0 0.187 -0.0935l 0.275 -0.3575Z m -0.616 7.1885l -1.2815 -1.419q -0.077 -0.0825 -0.15125 -0.11825q -0.07425 -0.03575 -0.18975 -0.03575h -0.583l 0.814 1.331q 0.077 0.1265 0.16775 0.18425q 0.09075 0.05775 0.26675 0.05775h 0.957Z "/></symbol><symbol id="gC08EB52A90F6C8802414B8D7844762B4" overflow="visible"><path d="M 0 0m 1.705 4.455q 0.264 0.572 0.649 0.89375q 0.385 0.32175 0.9405 0.32175q 0.176 0 0.33825 -0.0385q 0.16225 -0.0385 0.28875 -0.121l -0.0715 -0.7315q -0.033 -0.1375 -0.165 -0.1375q -0.077 0 -0.2255 0.033q -0.1485 0.033 -0.3355 0.033q -0.264 0 -0.47025 -0.077q -0.20625 -0.077 -0.3685 -0.22825q -0.16225 -0.15125 -0.2915 -0.374q -0.12925 -0.22275 -0.23375 -0.50875v -3.52h -0.9845v 5.5715h 0.561q 0.1595 0 0.22 -0.0605q 0.0605 -0.0605 0.0825 -0.209l 0.066 -0.847Z "/></symbol><symbol id="gC086F5205D4BE11F02D59855BB95536B" overflow="visible"><path d="M 0 0m 2.0735 7.0125v -2.7555h 3.2395v -0.869h -3.2395v -3.388h -1.067v 7.8815h 4.8565v -0.869h -3.7895Z "/></symbol><symbol id="g8105CCAD23AC3F816555ADE218A87BA3" overflow="visible"><path d="M 0 0m 1.8095 5.5715v -5.5715h -0.979v 5.5715h 0.979Z m 0.209 1.749q 0 -0.143 -0.05775 -0.26675q -0.05775 -0.12375 -0.154 -0.22q -0.09625 -0.09625 -0.2255 -0.15125q -0.12925 -0.055 -0.27225 -0.055q -0.143 0 -0.26675 0.055q -0.12375 0.055 -0.21725 0.15125q -0.0935 0.09625 -0.1485 0.22q -0.055 0.12375 -0.055 0.26675q 0 0.143 0.055 0.27225q 0.055 0.12925 0.1485 0.2255q 0.0935 0.09625 0.21725 0.15125q 0.12375 0.055 0.26675 0.055q 0.143 0 0.27225 -0.055q 0.12925 -0.055 0.2255 -0.15125q 0.09625 -0.09625 0.154 -0.2255q 0.05775 -0.12925 0.05775 -0.27225Z "/></symbol><symbol id="gB434E4DE6948F304E8C2835D7E7D2FF2" overflow="visible"><path d="M 0 0m 2.717 2.7225q 0.297 0 0.5225 0.0825q 0.2255 0.0825 0.3795 0.231q 0.154 0.1485 0.231 0.35475q 0.077 0.20625 0.077 0.45375q 0 0.5115 -0.31075 0.814q -0.31075 0.3025 -0.89925 0.3025q -0.594 0 -0.90475 -0.3025q -0.31075 -0.3025 -0.31075 -0.814q 0 -0.2475 0.07975 -0.45375q 0.07975 -0.20625 0.23375 -0.35475q 0.154 -0.1485 0.3795 -0.231q 0.2255 -0.0825 0.5225 -0.0825Z m 1.7655 -3.025q 0 0.2035 -0.1155 0.33q -0.1155 0.1265 -0.31075 0.198q -0.19525 0.0715 -0.45375 0.10175q -0.2585 0.03025 -0.54725 0.04675q -0.28875 0.0165 -0.58575 0.033q -0.297 0.0165 -0.572 0.055q -0.308 -0.143 -0.50325 -0.36025q -0.19525 -0.21725 -0.19525 -0.50875q 0 -0.187 0.09625 -0.34925q 0.09625 -0.16225 0.29425 -0.2805q 0.198 -0.11825 0.49775 -0.187q 0.29975 -0.06875 0.70675 -0.06875q 0.396 0 0.7095 0.0715q 0.3135 0.0715 0.53075 0.2035q 0.21725 0.132 0.33275 0.3135q 0.1155 0.1815 0.1155 0.4015Z m 0.9955 5.654v -0.363q 0 -0.1815 -0.231 -0.231l -0.6325 -0.0825q 0.187 -0.363 0.187 -0.803q 0 -0.407 -0.15675 -0.73975q -0.15675 -0.33275 -0.43175 -0.56925q -0.275 -0.2365 -0.66 -0.363q -0.385 -0.1265 -0.836 -0.1265q -0.3905 0 -0.737 0.0935q -0.176 -0.11 -0.2695 -0.23375q -0.0935 -0.12375 -0.0935 -0.25025q 0 -0.198 0.16225 -0.29975q 0.16225 -0.10175 0.42625 -0.14575q 0.264 -0.044 0.60225 -0.055q 0.33825 -0.011 0.693 -0.03575q 0.35475 -0.02475 0.693 -0.08525q 0.33825 -0.0605 0.60225 -0.198q 0.264 -0.1375 0.42625 -0.3795q 0.16225 -0.242 0.16225 -0.627q 0 -0.3575 -0.17875 -0.693q -0.17875 -0.3355 -0.51425 -0.59675q -0.3355 -0.26125 -0.82225 -0.418q -0.48675 -0.15675 -1.09725 -0.15675q -0.6105 0 -1.067 0.121q -0.4565 0.121 -0.759 0.3245q -0.3025 0.2035 -0.45375 0.47025q -0.15125 0.26675 -0.15125 0.55825q 0 0.4125 0.2585 0.6985q 0.2585 0.286 0.7095 0.4565q -0.2475 0.11 -0.39325 0.29425q -0.14575 0.18425 -0.14575 0.49775q 0 0.121 0.044 0.25025q 0.044 0.12925 0.13475 0.2585q 0.09075 0.12925 0.22275 0.24475q 0.132 0.1155 0.308 0.2035q -0.4125 0.231 -0.6435 0.61325q -0.231 0.38225 -0.231 0.88825q 0 0.407 0.15675 0.73975q 0.15675 0.33275 0.43725 0.5665q 0.2805 0.23375 0.66825 0.36025q 0.38775 0.1265 0.84975 0.1265q 0.363 0 0.6765 -0.07975q 0.3135 -0.07975 0.572 -0.23375h 1.5125Z "/></symbol><symbol id="g858966C001BCFF83B2F1A65D32F9CBAB" overflow="visible"><path d="M 0 0m 5.4285 0.9295q 0.1595 0 0.253 -0.0935q 0.0935 -0.0935 0.0935 -0.242v -0.594h -5.258v 0.3355q 0 0.1045 0.044 0.2145q 0.044 0.11 0.1375 0.2035l 2.5245 2.5355q 0.3135 0.319 0.572 0.61325q 0.2585 0.29425 0.44 0.59125q 0.1815 0.297 0.2805 0.60225q 0.099 0.30525 0.099 0.65175q 0 0.3465 -0.11 0.60775q -0.11 0.26125 -0.29975 0.43175q -0.18975 0.1705 -0.44825 0.25575q -0.2585 0.08525 -0.5555 0.08525q -0.3025 0 -0.5555 -0.088q -0.253 -0.088 -0.44825 -0.24475q -0.19525 -0.15675 -0.32725 -0.37125q -0.132 -0.2145 -0.187 -0.473q -0.066 -0.1925 -0.17875 -0.25575q -0.11275 -0.06325 -0.31625 -0.03575l -0.5115 0.088q 0.077 0.539 0.29975 0.95425q 0.22275 0.41525 0.561 0.69575q 0.33825 0.2805 0.77275 0.42625q 0.4345 0.14575 0.9405 0.14575q 0.5005 0 0.935 -0.1485q 0.4345 -0.1485 0.7535 -0.43175q 0.319 -0.28325 0.5005 -0.69025q 0.1815 -0.407 0.1815 -0.924q 0 -0.44 -0.132 -0.81675q -0.132 -0.37675 -0.3575 -0.71775q -0.2255 -0.341 -0.51975 -0.6655q -0.29425 -0.3245 -0.62425 -0.6545l -2.079 -2.123q 0.22 0.0605 0.4455 0.09625q 0.2255 0.03575 0.4345 0.03575h 2.64Z "/></symbol><symbol id="g8838A5AFE8A4C4BD9F956A0C4425BE0D" overflow="visible"><path d="M 0 0m 0.99 3.6025h 4.4v -0.715h -4.4v 0.715Z "/></symbol><symbol id="gD2AA63ACF3A30583767DC45F0812F7C0" overflow="visible"><path d="M 0 0m 7.8375 3.938q 0 -0.8855 -0.2805 -1.6115q -0.2805 -0.726 -0.792 -1.243q -0.5115 -0.517 -1.22925 -0.80025q -0.71775 -0.28325 -1.58675 -0.28325h -2.9425v 7.8815h 2.9425q 0.869 0 1.58675 -0.28325q 0.71775 -0.28325 1.22925 -0.803q 0.5115 -0.51975 0.792 -1.24575q 0.2805 -0.726 0.2805 -1.6115Z m -1.0945 0q 0 0.726 -0.198 1.298q -0.198 0.572 -0.561 0.968q -0.363 0.396 -0.88 0.605q -0.517 0.209 -1.155 0.209h -1.8755v -6.1545h 1.8755q 0.638 0 1.155 0.209q 0.517 0.209 0.88 0.60225q 0.363 0.39325 0.561 0.96525q 0.198 0.572 0.198 1.298Z "/></symbol><symbol id="g9C674704BA9B427AEB9EED7D565D1F0D" overflow="visible"><path d="M 0 0m 3.124 5.6595q 0.6105 0 1.1 -0.2035q 0.4895 -0.2035 0.836 -0.5775q 0.3465 -0.374 0.53075 -0.90475q 0.18425 -0.53075 0.18425 -1.18525q 0 -0.66 -0.18425 -1.188q -0.18425 -0.528 -0.53075 -0.902q -0.3465 -0.374 -0.836 -0.57475q -0.4895 -0.20075 -1.1 -0.20075q -0.616 0 -1.10825 0.20075q -0.49225 0.20075 -0.83875 0.57475q -0.3465 0.374 -0.53075 0.902q -0.18425 0.528 -0.18425 1.188q 0 0.6545 0.18425 1.18525q 0.18425 0.53075 0.53075 0.90475q 0.3465 0.374 0.83875 0.5775q 0.49225 0.2035 1.10825 0.2035Z m 0 -4.972q 0.825 0 1.232 0.55275q 0.407 0.55275 0.407 1.54275q 0 0.9955 -0.407 1.551q -0.407 0.5555 -1.232 0.5555q -0.418 0 -0.72875 -0.143q -0.31075 -0.143 -0.517 -0.4125q -0.20625 -0.2695 -0.308 -0.66275q -0.10175 -0.39325 -0.10175 -0.88825q 0 -0.99 0.40975 -1.54275q 0.40975 -0.55275 1.24575 -0.55275Z "/></symbol><symbol id="g4BE1DD0D0526A7283DD8BB16EC018A1" overflow="visible"><path d="M 0 0m 2.486 -0.088q -0.66 0 -1.01475 0.3685q -0.35475 0.3685 -0.35475 1.0615v 3.41h -0.671q -0.088 0 -0.1485 0.05225q -0.0605 0.05225 -0.0605 0.16225v 0.3905l 0.913 0.1155l 0.2255 1.7215q 0.0165 0.0825 0.07425 0.13475q 0.05775 0.05225 0.15125 0.05225h 0.495v -1.9195h 1.6115v -0.7095h -1.6115v -3.344q 0 -0.352 0.1705 -0.5225q 0.1705 -0.1705 0.44 -0.1705q 0.154 0 0.26675 0.04125q 0.11275 0.04125 0.19525 0.09075q 0.0825 0.0495 0.14025 0.09075q 0.05775 0.04125 0.10175 0.04125q 0.077 0 0.1375 -0.0935l 0.286 -0.4675q -0.253 -0.2365 -0.6105 -0.37125q -0.3575 -0.13475 -0.737 -0.13475Z "/></symbol><symbol id="gBBFBBD718543D3A9AA39C774BA417C3F" overflow="visible"><path d="M 0 0m 4.5045 3.3935q 0 0.341 -0.09625 0.62425q -0.09625 0.28325 -0.2805 0.4895q -0.18425 0.20625 -0.44825 0.319q -0.264 0.11275 -0.5995 0.11275q -0.704 0 -1.11375 -0.40975q -0.40975 -0.40975 -0.50875 -1.13575h 3.047Z m 0.792 -2.6125q -0.1815 -0.22 -0.4345 -0.38225q -0.253 -0.16225 -0.54175 -0.26675q -0.28875 -0.1045 -0.59675 -0.15675q -0.308 -0.05225 -0.6105 -0.05225q -0.5775 0 -1.06425 0.19525q -0.48675 0.19525 -0.8415 0.572q -0.35475 0.37675 -0.55275 0.93225q -0.198 0.5555 -0.198 1.276q 0 0.583 0.17875 1.089q 0.17875 0.506 0.51425 0.87725q 0.3355 0.37125 0.8195 0.583q 0.484 0.21175 1.089 0.21175q 0.5005 0 0.92675 -0.16775q 0.42625 -0.16775 0.737 -0.484q 0.31075 -0.31625 0.48675 -0.781q 0.176 -0.46475 0.176 -1.05875q 0 -0.231 -0.0495 -0.308q -0.0495 -0.077 -0.187 -0.077h -3.7235q 0.0165 -0.528 0.14575 -0.9185q 0.12925 -0.3905 0.36025 -0.65175q 0.231 -0.26125 0.55 -0.3905q 0.319 -0.12925 0.715 -0.12925q 0.3685 0 0.63525 0.08525q 0.26675 0.08525 0.45925 0.18425q 0.1925 0.099 0.32175 0.18425q 0.12925 0.08525 0.22275 0.08525q 0.121 0 0.187 -0.0935l 0.275 -0.3575Z "/></symbol><symbol id="gE8D63FD2986C5E245894841A492C47DD" overflow="visible"><path d="M 0 0m 4.4055 4.246q -0.275 0.3685 -0.594 0.51425q -0.319 0.14575 -0.715 0.14575q -0.7755 0 -1.1935 -0.5555q -0.418 -0.5555 -0.418 -1.584q 0 -0.5445 0.0935 -0.93225q 0.0935 -0.38775 0.275 -0.638q 0.1815 -0.25025 0.4455 -0.36575q 0.264 -0.1155 0.5995 -0.1155q 0.484 0 0.84425 0.22q 0.36025 0.22 0.66275 0.6215v 2.6895Z m 0.979 3.8555v -8.1015h -0.583q -0.209 0 -0.264 0.2035l -0.088 0.6765q -0.3575 -0.429 -0.814 -0.693q -0.4565 -0.264 -1.056 -0.264q -0.4785 0 -0.869 0.18425q -0.3905 0.18425 -0.6655 0.54175q -0.275 0.3575 -0.4235 0.891q -0.1485 0.5335 -0.1485 1.2265q 0 0.616 0.165 1.14675q 0.165 0.53075 0.473 0.92125q 0.308 0.3905 0.75625 0.61325q 0.44825 0.22275 1.00925 0.22275q 0.5115 0 0.87725 -0.17325q 0.36575 -0.17325 0.65175 -0.48125v 3.0855h 0.979Z "/></symbol><symbol id="gD2DE1FC819581D5FA35DA0AF00F968BF" overflow="visible"><path d="M 0 0m 1.6995 4.763q 0.1815 0.2035 0.385 0.3685q 0.2035 0.165 0.43175 0.28325q 0.22825 0.11825 0.484 0.1815q 0.25575 0.06325 0.55275 0.06325q 0.4565 0 0.80575 -0.15125q 0.34925 -0.15125 0.583 -0.429q 0.23375 -0.27775 0.35475 -0.66825q 0.121 -0.3905 0.121 -0.8635v -3.5475h -0.9845v 3.5475q 0 0.6325 -0.28875 0.98175q -0.28875 0.34925 -0.87725 0.34925q -0.4345 0 -0.81125 -0.209q -0.37675 -0.209 -0.69575 -0.5665v -4.103h -0.9845v 5.5715h 0.5885q 0.209 0 0.2585 -0.2035l 0.077 -0.605Z "/></symbol><symbol id="gEE9A066A740F79888974EE80C1B35719" overflow="visible"><path d="M 0 0m 5.357 5.5715v -5.5715h -0.583q -0.209 0 -0.264 0.2035l -0.077 0.5995q -0.363 -0.4015 -0.814 -0.64625q -0.451 -0.24475 -1.034 -0.24475q -0.4565 0 -0.80575 0.15125q -0.34925 0.15125 -0.58575 0.42625q -0.2365 0.275 -0.35475 0.6655q -0.11825 0.3905 -0.11825 0.8635v 3.553h 0.979v -3.553q 0 -0.6325 0.28875 -0.979q 0.28875 -0.3465 0.88275 -0.3465q 0.4345 0 0.81125 0.20625q 0.37675 0.20625 0.69575 0.56925v 4.103h 0.979Z "/></symbol><symbol id="gBE78CF075B92E1C1839ADBCD8EB4597D" overflow="visible"><path d="M 0 0m 5.5825 5.5715l -3.1075 -7.216q -0.0495 -0.11 -0.12375 -0.176q -0.07425 -0.066 -0.22825 -0.066h -0.726l 1.0175 2.211l -2.299 5.247h 0.847q 0.1265 0 0.20075 -0.06325q 0.07425 -0.06325 0.10175 -0.14025l 1.4905 -3.509q 0.088 -0.231 0.1485 -0.484q 0.077 0.2585 0.165 0.4895l 1.4465 3.5035q 0.033 0.088 0.11275 0.14575q 0.07975 0.05775 0.17875 0.05775h 0.7755Z "/></symbol><symbol id="gF712410779C220ED54F30A780833386D" overflow="visible"><path d="M 0 0m 1.3475 3.4595q 0 -1.177 0.29975 -2.288q 0.29975 -1.111 0.87725 -2.112q 0.088 -0.1705 0.044 -0.26125q -0.044 -0.09075 -0.1265 -0.14575l -0.4345 -0.264q -0.4125 0.6325 -0.70125 1.254q -0.28875 0.6215 -0.4675 1.2485q -0.17875 0.627 -0.26125 1.26225q -0.0825 0.63525 -0.0825 1.30625q 0 0.6655 0.0825 1.3035q 0.0825 0.638 0.26125 1.26225q 0.17875 0.62425 0.4675 1.24575q 0.28875 0.6215 0.70125 1.2595l 0.4345 -0.2695q 0.0825 -0.055 0.1265 -0.14575q 0.044 -0.09075 -0.044 -0.25575q -0.5775 -1.001 -0.87725 -2.112q -0.29975 -1.111 -0.29975 -2.288Z "/></symbol><symbol id="gA7578BF7DAAAB8AA6DEB5B29F8EC0148" overflow="visible"><path d="M 0 0m 4.323 4.719q 0.1595 0 0.308 0.0385q 0.1485 0.0385 0.275 0.09625q 0.1265 0.05775 0.22275 0.12375q 0.09625 0.066 0.14575 0.1265l 0.132 -0.627q -0.187 -0.2585 -0.49775 -0.385q -0.31075 -0.1265 -0.64625 -0.1265q -0.286 0 -0.56925 0.09075q -0.28325 0.09075 -0.561 0.20075q -0.27775 0.11 -0.539 0.20075q -0.26125 0.09075 -0.50875 0.09075q -0.165 0 -0.31625 -0.03575q -0.15125 -0.03575 -0.2805 -0.0935q -0.12925 -0.05775 -0.22275 -0.1265q -0.0935 -0.06875 -0.143 -0.13475l -0.1595 0.5995q 0.1925 0.2805 0.506 0.41525q 0.3135 0.13475 0.6765 0.13475q 0.2915 0 0.5775 -0.09075q 0.286 -0.09075 0.561 -0.2035q 0.275 -0.11275 0.53625 -0.2035q 0.26125 -0.09075 0.50325 -0.09075Z m 0 -1.859q 0.1595 0 0.308 0.03575q 0.1485 0.03575 0.275 0.0935q 0.1265 0.05775 0.22275 0.12375q 0.09625 0.066 0.14575 0.1265l 0.132 -0.6215q -0.187 -0.264 -0.49775 -0.3905q -0.31075 -0.1265 -0.64625 -0.1265q -0.286 0 -0.56925 0.09075q -0.28325 0.09075 -0.561 0.2035q -0.27775 0.11275 -0.539 0.2035q -0.26125 0.09075 -0.50875 0.09075q -0.165 0 -0.31625 -0.0385q -0.15125 -0.0385 -0.2805 -0.09625q -0.12925 -0.05775 -0.22275 -0.1265q -0.0935 -0.06875 -0.143 -0.13475l -0.1595 0.5995q 0.1925 0.2805 0.506 0.41525q 0.3135 0.13475 0.6765 0.13475q 0.2915 0 0.5775 -0.09075q 0.286 -0.09075 0.561 -0.20075q 0.275 -0.11 0.53625 -0.20075q 0.26125 -0.09075 0.50325 -0.09075Z "/></symbol><symbol id="gE3FF9785F1E2A56DD0B7C469DB32B4B3" overflow="visible"><path d="M 0 0m 6.05 3.938q 0 -1.034 -0.22275 -1.79025q -0.22275 -0.75625 -0.60775 -1.25125q -0.385 -0.495 -0.91025 -0.737q -0.52525 -0.242 -1.12475 -0.242q -0.605 0 -1.12475 0.242q -0.51975 0.242 -0.90475 0.737q -0.385 0.495 -0.605 1.25125q -0.22 0.75625 -0.22 1.79025q 0 1.034 0.22 1.793q 0.22 0.759 0.605 1.25675q 0.385 0.49775 0.90475 0.73975q 0.51975 0.242 1.12475 0.242q 0.5995 0 1.12475 -0.242q 0.52525 -0.242 0.91025 -0.73975q 0.385 -0.49775 0.60775 -1.25675q 0.22275 -0.759 0.22275 -1.793Z m -1.0175 0q 0 0.902 -0.15125 1.51525q -0.15125 0.61325 -0.407 0.98725q -0.25575 0.374 -0.59125 0.53625q -0.3355 0.16225 -0.6985 0.16225q -0.363 0 -0.6985 -0.16225q -0.3355 -0.16225 -0.5885 -0.53625q -0.253 -0.374 -0.40425 -0.98725q -0.15125 -0.61325 -0.15125 -1.51525q 0 -0.902 0.15125 -1.5125q 0.15125 -0.6105 0.40425 -0.9845q 0.253 -0.374 0.5885 -0.53625q 0.3355 -0.16225 0.6985 -0.16225q 0.363 0 0.6985 0.16225q 0.3355 0.16225 0.59125 0.53625q 0.25575 0.374 0.407 0.9845q 0.15125 0.6105 0.15125 1.5125Z "/></symbol><symbol id="g23C28CDF4D43CF10AF563193FACB3521" overflow="visible"><path d="M 0 0m 0.715 -1.331q -0.044 0.0385 -0.0605 0.0715q -0.0165 0.033 -0.0165 0.0825q 0 0.0385 0.02475 0.077q 0.02475 0.0385 0.05775 0.0715q 0.055 0.0605 0.14025 0.1595q 0.08525 0.099 0.17325 0.23375q 0.088 0.13475 0.16225 0.297q 0.07425 0.16225 0.10725 0.34375q -0.0165 -0.0055 -0.03575 -0.0055q -0.01925 0 -0.03575 0q -0.286 0 -0.46475 0.18975q -0.17875 0.18975 -0.17875 0.48675q 0 0.2585 0.17875 0.44q 0.17875 0.1815 0.47575 0.1815q 0.165 0 0.2915 -0.0605q 0.1265 -0.0605 0.21175 -0.16775q 0.08525 -0.10725 0.12925 -0.2475q 0.044 -0.14025 0.044 -0.30525q 0 -0.2475 -0.06875 -0.51425q -0.06875 -0.26675 -0.2035 -0.528q -0.13475 -0.26125 -0.32725 -0.50875q -0.1925 -0.2475 -0.44 -0.4565l -0.165 0.1595Z "/></symbol><symbol id="g7ACF487B0F30E71345A1917C31F80622" overflow="visible"><path d="M 0 0m 5.9455 7.8815v -0.44q 0 -0.187 -0.04125 -0.308q -0.04125 -0.121 -0.07975 -0.2035l -3.267 -6.5835q -0.0715 -0.143 -0.198 -0.24475q -0.1265 -0.10175 -0.3355 -0.10175h -0.704l 3.311 6.501q 0.0715 0.1375 0.1485 0.253q 0.077 0.1155 0.165 0.22h -4.114q -0.0935 0 -0.165 0.07425q -0.0715 0.07425 -0.0715 0.16775v 0.6655h 5.3515Z "/></symbol><symbol id="g662B771DC9992A5B629DDF4470B6033E" overflow="visible"><path d="M 0 0m 1.5895 3.4595q 0 1.177 -0.29975 2.288q -0.29975 1.111 -0.87725 2.112q -0.044 0.0825 -0.055 0.14575q -0.011 0.06325 0.0055 0.11q 0.0165 0.04675 0.05225 0.0825q 0.03575 0.03575 0.07975 0.06325l 0.4345 0.2695q 0.4125 -0.638 0.70125 -1.2595q 0.28875 -0.6215 0.4675 -1.24575q 0.17875 -0.62425 0.26125 -1.26225q 0.0825 -0.638 0.0825 -1.3035q 0 -0.671 -0.0825 -1.30625q -0.0825 -0.63525 -0.26125 -1.26225q -0.17875 -0.627 -0.4675 -1.2485q -0.28875 -0.6215 -0.70125 -1.254l -0.4345 0.264q -0.044 0.0275 -0.07975 0.06325q -0.03575 0.03575 -0.05225 0.0825q -0.0165 0.04675 -0.0055 0.11275q 0.011 0.066 0.055 0.1485q 0.5775 1.001 0.87725 2.112q 0.29975 1.111 0.29975 2.288Z "/></symbol></defs></svg>