<svg viewBox="0 0 381.015586614 219.148" width="381.015586614pt" height="219.148pt" xmlns="http://www.w3.org/2000/svg" xmlns:xlink="http://www.w3.org/1999/xlink" xmlns:h5="http://www.w3.org/1999/xhtml"><path fill="#ffffff" fill-rule="nonzero" d="M 0 0v 219.148h 381.015586614v -219.148Z "/><g transform="translate(6 6)"><g><path fill="none" stroke="#d4d4d4" stroke-width="1" stroke-linecap="butt" stroke-linejoin="miter" stroke-miterlimit="4" transform="translate(73.443102362 21.754374016)" d="M 0 0m 0 155.905511811v -155.905511811"/><path fill="none" stroke="#d4d4d4" stroke-width="1" stroke-linecap="butt" stroke-linejoin="miter" stroke-miterlimit="4" transform="translate(101.789559055 21.754374016)" d="M 0 0m 0 155.905511811v -155.905511811"/><path fill="none" stroke="#d4d4d4" stroke-width="1" stroke-linecap="butt" stroke-linejoin="miter" stroke-miterlimit="4" transform="translate(130.136015748 21.754374016)" d="M 0 0m 0 155.905511811v -155.905511811"/><path fill="none" stroke="#d4d4d4" stroke-width="1" stroke-linecap="butt" stroke-linejoin="miter" stroke-miterlimit="4" transform="translate(158.482472441 21.754374016)" d="M 0 0m 0 155.905511811v -155.905511811"/><path fill="none" stroke="#d4d4d4" stroke-width="1" stroke-linecap="butt" stroke-linejoin="miter" stroke-miterlimit="4" transform="translate(186.828929134 21.754374016)" d="M 0 0m 0 155.905511811v -155.905511811"/><path fill="none" stroke="#d4d4d4" stroke-width="1" stroke-linecap="butt" stroke-linejoin="miter" stroke-miterlimit="4" transform="translate(215.175385827 21.754374016)" d="M 0 0m 0 155.905511811v -155.905511811"/><path fill="none" stroke="#d4d4d4" stroke-width="1" stroke-linecap="butt" stroke-linejoin="miter" stroke-miterlimit="4" transform="translate(243.52184252 21.754374016)" d="M 0 0m 0 155.905511811v -155.905511811"/><path fill="none" stroke="#d4d4d4" stroke-width="1" stroke-linecap="butt" stroke-linejoin="miter" stroke-miterlimit="4" transform="translate(271.868299213 21.754374016)" d="M 0 0m 0 155.905511811v -155.905511811"/><path fill="none" stroke="#d4d4d4" stroke-width="1" stroke-linecap="butt" stroke-linejoin="miter" stroke-miterlimit="4" transform="translate(300.214755906 21.754374016)" d="M 0 0m 0 155.905511811v -155.905511811"/><path fill="none" stroke="#d4d4d4" stroke-width="1" stroke-linecap="butt" stroke-linejoin="miter" stroke-miterlimit="4" transform="translate(328.561212598 21.754374016)" d="M 0 0m 0 155.905511811v -155.905511811"/><path fill="none" stroke="#d4d4d4" stroke-width="1" stroke-linecap="butt" stroke-linejoin="miter" stroke-miterlimit="4" transform="translate(45.096645669 151.675633858)" d="M 0 0h 283.464566929"/><path fill="none" stroke="#d4d4d4" stroke-width="1" stroke-linecap="butt" stroke-linejoin="miter" stroke-miterlimit="4" transform="translate(45.096645669 125.69138189)" d="M 0 0h 283.464566929"/><path fill="none" stroke="#d4d4d4" stroke-width="1" stroke-linecap="butt" stroke-linejoin="miter" stroke-miterlimit="4" transform="translate(45.096645669 99.707129921)" d="M 0 0h 283.464566929"/><path fill="none" stroke="#d4d4d4" stroke-width="1" stroke-linecap="butt" stroke-linejoin="miter" stroke-miterlimit="4" transform="translate(45.096645669 73.722877953)" d="M 0 0h 283.464566929"/><path fill="none" stroke="#d4d4d4" stroke-width="1" stroke-linecap="butt" stroke-linejoin="miter" stroke-miterlimit="4" transform="translate(45.096645669 47.738625984)" d="M 0 0h 283.464566929"/><path fill="none" stroke="#d4d4d4" stroke-width="1" stroke-linecap="butt" stroke-linejoin="miter" stroke-miterlimit="4" transform="translate(45.096645669 21.754374016)" d="M 0 0h 283.464566929"/><path fill="none" stroke="#000000" stroke-width="1" stroke-linecap="butt" stroke-linejoin="miter" stroke-miterlimit="4" transform="translate(42.262 177.659885827)" d="M 0 0h 301.883057643"/><path fill="none" stroke="#000000" stroke-width="1" stroke-linecap="butt" stroke-linejoin="miter" stroke-miterlimit="4" stroke-dashoffset="0" stroke-dasharray="" transform="translate(338.475794651 175.533901575)" d="M 0 0l 5.669291339 2.125984252l -5.669291339 2.125984252"/><path fill="none" stroke="#000000" stroke-width="1" stroke-linecap="butt" stroke-linejoin="miter" stroke-miterlimit="4" transform="translate(73.443102362 174.825240157)" d="M 0 0m 0 5.669291339v -5.669291339"/><path fill="none" transform="translate(70.253102362 184.7465)" d="M 0 0h 6.38v 7.282h -6.38v -7.282Z "/><g transform="translate(70.253102252 184.746499969)"><g transform="matrix(1 0 0 -1 0 7.282)"><use xlink:href="#gF33465DF61AEC2C91C9269A44E9C5550" x="0" y="0" fill="#000000" fill-rule="nonzero"/></g></g><path fill="none" stroke="#000000" stroke-width="1" stroke-linecap="butt" stroke-linejoin="miter" stroke-miterlimit="4" transform="translate(101.789559055 174.825240157)" d="M 0 0m 0 5.669291339v -5.669291339"/><path fill="none" transform="translate(98.599559055 184.7465)" d="M 0 0h 6.38v 7.282h -6.38v -7.282Z "/><g transform="translate(98.599558945 184.746499969)"><g transform="matrix(1 0 0 -1 0 7.282)"><use xlink:href="#g4E546F2B196C04380773CE30D47169C8" x="0" y="0" fill="#000000" fill-rule="nonzero"/></g></g><path fill="none" stroke="#000000" stroke-width="1" stroke-linecap="butt" stroke-linejoin="miter" stroke-miterlimit="4" transform="translate(130.136015748 174.825240157)" d="M 0 0m 0 5.669291339v -5.669291339"/><path fill="none" transform="translate(126.946015748 184.7465)" d="M 0 0h 6.38v 7.37h -6.38v -7.37Z "/><g transform="translate(126.946015638 184.74649989)"><g transform="matrix(1 0 0 -1 0 7.282)"><use xlink:href="#g94C810941F70236CE1CFA5F941036EA1" x="0" y="0" fill="#000000" fill-rule="nonzero"/></g></g><path fill="none" stroke="#000000" stroke-width="1" stroke-linecap="butt" stroke-linejoin="miter" stroke-miterlimit="4" transform="translate(158.482472441 174.825240157)" d="M 0 0m 0 5.669291339v -5.669291339"/><path fill="none" transform="translate(155.292472441 184.7465)" d="M 0 0h 6.38v 7.37h -6.38v -7.37Z "/><g transform="translate(155.292472331 184.74649989)"><g transform="matrix(1 0 0 -1 0 7.282)"><use xlink:href="#g8A016244ED88B943537A526DBF45A58B" x="0" y="0" fill="#000000" fill-rule="nonzero"/></g></g><path fill="none" stroke="#000000" stroke-width="1" stroke-linecap="butt" stroke-linejoin="miter" stroke-miterlimit="4" transform="translate(186.828929134 174.825240157)" d="M 0 0m 0 5.669291339v -5.669291339"/><path fill="none" transform="translate(180.448929134 184.7465)" d="M 0 0h 12.76v 7.37h -12.76v -7.37Z "/><g transform="translate(180.448929055 184.74649989)"><g transform="matrix(1 0 0 -1 0 7.282)"><use xlink:href="#g5B80D8A310BA63B987ECB2626BE4971A" x="0" y="0" fill="#000000" fill-rule="nonzero"/></g><g transform="matrix(1 0 0 -1 6.38 7.282)"><use xlink:href="#g42D816FE47F5E280BA401E8EC916AEBD" x="0" y="0" fill="#000000" fill-rule="nonzero"/></g></g><path fill="none" stroke="#000000" stroke-width="1" stroke-linecap="butt" stroke-linejoin="miter" stroke-miterlimit="4" transform="translate(215.175385827 174.825240157)" d="M 0 0m 0 5.669291339v -5.669291339"/><path fill="none" transform="translate(208.795385827 184.7465)" d="M 0 0h 12.76v 7.282h -12.76v -7.282Z "/><g transform="translate(208.795385748 184.746499969)"><g transform="matrix(1 0 0 -1 0 7.282)"><use xlink:href="#g5B80D8A310BA63B987ECB2626BE4971A" x="0" y="0" fill="#000000" fill-rule="nonzero"/></g><g transform="matrix(1 0 0 -1 6.38 7.282)"><use xlink:href="#gF33465DF61AEC2C91C9269A44E9C5550" x="0" y="0" fill="#000000" fill-rule="nonzero"/></g></g><path fill="none" stroke="#000000" stroke-width="1" stroke-linecap="butt" stroke-linejoin="miter" stroke-miterlimit="4" transform="translate(243.52184252 174.825240157)" d="M 0 0m 0 5.669291339v -5.669291339"/><path fill="none" transform="translate(237.14184252 184.7465)" d="M 0 0h 12.76v 7.282h -12.76v -7.282Z "/><g transform="translate(237.141842441 184.746499969)"><g transform="matrix(1 0 0 -1 0 7.282)"><use xlink:href="#g5B80D8A310BA63B987ECB2626BE4971A" x="0" y="0" fill="#000000" fill-rule="nonzero"/></g><g transform="matrix(1 0 0 -1 6.38 7.282)"><use xlink:href="#g4E546F2B196C04380773CE30D47169C8" x="0" y="0" fill="#000000" fill-rule="nonzero"/></g></g><path fill="none" stroke="#000000" stroke-width="1" stroke-linecap="butt" stroke-linejoin="miter" stroke-miterlimit="4" transform="translate(271.868299213 174.825240157)" d="M 0 0m 0 5.669291339v -5.669291339"/><path fill="none" transform="translate(265.488299213 184.7465)" d="M 0 0h 12.76v 7.37h -12.76v -7.37Z "/><g transform="translate(265.488299134 184.74649989)"><g transform="matrix(1 0 0 -1 0 7.282)"><use xlink:href="#g5B80D8A310BA63B987ECB2626BE4971A" x="0" y="0" fill="#000000" fill-rule="nonzero"/></g><g transform="matrix(1 0 0 -1 6.38 7.282)"><use xlink:href="#g94C810941F70236CE1CFA5F941036EA1" x="0" y="0" fill="#000000" fill-rule="nonzero"/></g></g><path fill="none" stroke="#000000" stroke-width="1" stroke-linecap="butt" stroke-linejoin="miter" stroke-miterlimit="4" transform="translate(300.214755906 174.825240157)" d="M 0 0m 0 5.669291339v -5.669291339"/><path fill="none" transform="translate(293.834755906 184.7465)" d="M 0 0h 12.76v 7.37h -12.76v -7.37Z "/><g transform="translate(293.834755827 184.74649989)"><g transform="matrix(1 0 0 -1 0 7.282)"><use xlink:href="#g5B80D8A310BA63B987ECB2626BE4971A" x="0" y="0" fill="#000000" fill-rule="nonzero"/></g><g transform="matrix(1 0 0 -1 6.38 7.282)"><use xlink:href="#g8A016244ED88B943537A526DBF45A58B" x="0" y="0" fill="#000000" fill-rule="nonzero"/></g></g><path fill="none" stroke="#000000" stroke-width="1" stroke-linecap="butt" stroke-linejoin="miter" stroke-miterlimit="4" transform="translate(328.561212598 174.825240157)" d="M 0 0m 0 5.669291339v -5.669291339"/><path fill="none" transform="translate(322.181212598 184.7465)" d="M 0 0h 12.76v 7.37h -12.76v -7.37Z "/><g transform="translate(322.18121252 184.74649989)"><g transform="matrix(1 0 0 -1 0 7.282)"><use xlink:href="#gF33465DF61AEC2C91C9269A44E9C5550" x="0" y="0" fill="#000000" fill-rule="nonzero"/></g><g transform="matrix(1 0 0 -1 6.38 7.282)"><use xlink:href="#g42D816FE47F5E280BA401E8EC916AEBD" x="0" y="0" fill="#000000" fill-rule="nonzero"/></g></g><path fill="none" transform="translate(322.122586614 180.494531496)" d="M 0 0h 46.893v 9.493h -46.893v -9.493Z "/><g transform="translate(322.12258652 180.494531417)"><g transform="matrix(1 0 0 -1 0 7.8815)"><use xlink:href="#gCE3D0C1E7FB1BF8475D5506AE6A36C53" x="0" y="0" fill="#000000" fill-rule="nonzero"/></g><g transform="matrix(1 0 0 -1 4.532 7.8815)"><use xlink:href="#gF712410779C220ED54F30A780833386D" x="2.816" y="0" fill="#000000" fill-rule="nonzero"/><use xlink:href="#gB814AC5DAF153C4FD7E9628E643E98D0" x="5.544" y="0" fill="#000000" fill-rule="nonzero"/><use xlink:href="#gD2DE1FC819581D5FA35DA0AF00F968BF" x="11.011" y="0" fill="#000000" fill-rule="nonzero"/><use xlink:href="#gD2DE1FC819581D5FA35DA0AF00F968BF" x="17.149" y="0" fill="#000000" fill-rule="nonzero"/><use xlink:href="#g5FBFB3CD832EE821566533E138CF66E4" x="23.287" y="0" fill="#000000" fill-rule="nonzero"/><use xlink:href="#gBBFBBD718543D3A9AA39C774BA417C3F" x="29.095" y="0" fill="#000000" fill-rule="nonzero"/><use xlink:href="#gF457AFAEE3170D0B4FA719A7653C3D15" x="34.903" y="0" fill="#000000" fill-rule="nonzero"/><use xlink:href="#g662B771DC9992A5B629DDF4470B6033E" x="39.424" y="0" fill="#000000" fill-rule="nonzero"/></g></g><path fill="none" stroke="#000000" stroke-width="1" stroke-linecap="butt" stroke-linejoin="miter" stroke-miterlimit="4" transform="translate(45.096645669 6.170528971)" d="M 0 0m 0 174.324002525v -174.324002525"/><path fill="none" stroke="#000000" stroke-width="1" stroke-linecap="butt" stroke-linejoin="miter" stroke-miterlimit="4" stroke-dashoffset="0" stroke-dasharray="" transform="translate(42.970661417 6.170500625)" d="M 0 0m 0 5.669291339l 2.125984252 -5.669291339l 2.125984252 5.669291339"/><path fill="none" stroke="#000000" stroke-width="1" stroke-linecap="butt" stroke-linejoin="miter" stroke-miterlimit="4" transform="translate(42.262 151.675633858)" d="M 0 0h 5.669291339"/><path fill="none" transform="translate(31.630031496 148.034633858)" d="M 0 0h 6.38v 7.282h -6.38v -7.282Z "/><g transform="translate(31.630031386 148.034633827)"><g transform="matrix(1 0 0 -1 0 7.282)"><use xlink:href="#gF33465DF61AEC2C91C9269A44E9C5550" x="0" y="0" fill="#000000" fill-rule="nonzero"/></g></g><path fill="none" stroke="#000000" stroke-width="1" stroke-linecap="butt" stroke-linejoin="miter" stroke-miterlimit="4" transform="translate(42.262 125.69138189)" d="M 0 0h 5.669291339"/><path fill="none" transform="translate(31.630031496 122.05038189)" d="M 0 0h 6.38v 7.282h -6.38v -7.282Z "/><g transform="translate(31.630031386 122.050381858)"><g transform="matrix(1 0 0 -1 0 7.282)"><use xlink:href="#g4E546F2B196C04380773CE30D47169C8" x="0" y="0" fill="#000000" fill-rule="nonzero"/></g></g><path fill="none" stroke="#000000" stroke-width="1" stroke-linecap="butt" stroke-linejoin="miter" stroke-miterlimit="4" transform="translate(42.262 99.707129921)" d="M 0 0h 5.669291339"/><path fill="none" transform="translate(31.630031496 96.022129921)" d="M 0 0h 6.38v 7.37h -6.38v -7.37Z "/><g transform="translate(31.630031386 96.022129811)"><g transform="matrix(1 0 0 -1 0 7.282)"><use xlink:href="#g94C810941F70236CE1CFA5F941036EA1" x="0" y="0" fill="#000000" fill-rule="nonzero"/></g></g><path fill="none" stroke="#000000" stroke-width="1" stroke-linecap="butt" stroke-linejoin="miter" stroke-miterlimit="4" transform="translate(42.262 73.722877953)" d="M 0 0h 5.669291339"/><path fill="none" transform="translate(31.630031496 70.037877953)" d="M 0 0h 6.38v 7.37h -6.38v -7.37Z "/><g transform="translate(31.630031386 70.037877843)"><g transform="matrix(1 0 0 -1 0 7.282)"><use xlink:href="#g8A016244ED88B943537A526DBF45A58B" x="0" y="0" fill="#000000" fill-rule="nonzero"/></g></g><path fill="none" stroke="#000000" stroke-width="1" stroke-linecap="butt" stroke-linejoin="miter" stroke-miterlimit="4" transform="translate(42.262 47.738625984)" d="M 0 0h 5.669291339"/><path fill="none" transform="translate(25.250031496 44.053625984)" d="M 0 0h 12.76v 7.37h -12.76v -7.37Z "/><g transform="translate(25.250031417 44.053625874)"><g transform="matrix(1 0 0 -1 0 7.282)"><use xlink:href="#g5B80D8A310BA63B987ECB2626BE4971A" x="0" y="0" fill="#000000" fill-rule="nonzero"/></g><g transform="matrix(1 0 0 -1 6.38 7.282)"><use xlink:href="#g42D816FE47F5E280BA401E8EC916AEBD" x="0" y="0" fill="#000000" fill-rule="nonzero"/></g></g><path fill="none" stroke="#000000" stroke-width="1" stroke-linecap="butt" stroke-linejoin="miter" stroke-miterlimit="4" transform="translate(42.262 21.754374016)" d="M 0 0h 5.669291339"/><path fill="none" transform="translate(25.250031496 18.113374016)" d="M 0 0h 12.76v 7.282h -12.76v -7.282Z "/><g transform="translate(25.250031417 18.113373984)"><g transform="matrix(1 0 0 -1 0 7.282)"><use xlink:href="#g5B80D8A310BA63B987ECB2626BE4971A" x="0" y="0" fill="#000000" fill-rule="nonzero"/></g><g transform="matrix(1 0 0 -1 6.38 7.282)"><use xlink:href="#gF33465DF61AEC2C91C9269A44E9C5550" x="0" y="0" fill="#000000" fill-rule="nonzero"/></g></g><path fill="none" d="M 0 0h 42.262v 9.493h -42.262v -9.493Z "/><g transform="translate(-7.9e-8 -7.9e-8)"><g transform="matrix(1 0 0 -1 0 7.8815)"><use xlink:href="#g6EA347C04718A1BCFF3B55801A41A1E7" x="0" y="0" fill="#000000" fill-rule="nonzero"/><use xlink:href="#gDBCA8C53BDC90E5FB9B203BF3E01515" x="6.0885" y="0" fill="#000000" fill-rule="nonzero"/><use xlink:href="#gB814AC5DAF153C4FD7E9628E643E98D0" x="11.341" y="0" fill="#000000" fill-rule="nonzero"/><use xlink:href="#gC08EB52A90F6C8802414B8D7844762B4" x="16.808" y="0" fill="#000000" fill-rule="nonzero"/><use xlink:href="#g4BE1DD0D0526A7283DD8BB16EC018A1" x="20.812" y="0" fill="#000000" fill-rule="nonzero"/><use xlink:href="#gF712410779C220ED54F30A780833386D" x="27.5715" y="0" fill="#000000" fill-rule="nonzero"/><use xlink:href="#g28D199F63CDAA27A42D9F13EB8DD6058" x="30.5085" y="0" fill="#000000" fill-rule="nonzero"/><use xlink:href="#g662B771DC9992A5B629DDF4470B6033E" x="39.325" y="0" fill="#000000" fill-rule="nonzero"/></g></g><path fill="none" transform="translate(34.464677165 181.911854331)" d="M 0 0h 6.38v 7.37h -6.38v -7.37Z "/><g transform="translate(34.464677055 181.91185422)"><g transform="matrix(1 0 0 -1 0 7.282)"><use xlink:href="#g42D816FE47F5E280BA401E8EC916AEBD" x="0" y="0" fill="#000000" fill-rule="nonzero"/></g></g><path fill="none" stroke="#c1002a" stroke-width="1" stroke-linecap="butt" stroke-linejoin="miter" stroke-miterlimit="4" transform="translate(45.096645669 33.447287402)" d="M 0 0l 278.447494948 144.212598425"/><path fill="none" transform="translate(45.096645669 45.140200787)" d="M 0 0m 0 9.094488189l 56.692913386 -9.094488189l 70.866141732 49.37007874l 28.346456693 7.795275591l 42.519685039 33.779527559l 28.346456693 32.480314961"/><path fill="#000000" fill-rule="nonzero" stroke="#000000" stroke-width="1" stroke-linecap="butt" stroke-linejoin="miter" stroke-miterlimit="4" transform="translate(43.395858268 52.533901575)" d="M 0 0m 1.700787402 0c -0.938467276 0 -1.700787402 0.762320126 -1.700787402 1.700787402c 0 0.938467276 0.762320126 1.700787402 1.700787402 1.700787402c 0.938467276 0 1.700787402 -0.762320126 1.700787402 -1.700787402c 0 -0.938467276 -0.762320126 -1.700787402 -1.700787402 -1.700787402Z "/><path fill="#000000" fill-rule="nonzero" stroke="#000000" stroke-width="1" stroke-linecap="butt" stroke-linejoin="miter" stroke-miterlimit="4" transform="translate(100.088771654 43.439413386)" d="M 0 0m 1.700787402 0c -0.938467276 0 -1.700787402 0.762320126 -1.700787402 1.700787402c 0 0.938467276 0.762320126 1.700787402 1.700787402 1.700787402c 0.938467276 0 1.700787402 -0.762320126 1.700787402 -1.700787402c 0 -0.938467276 -0.762320126 -1.700787402 -1.700787402 -1.700787402Z "/><path fill="#000000" fill-rule="nonzero" stroke="#000000" stroke-width="1" stroke-linecap="butt" stroke-linejoin="miter" stroke-miterlimit="4" transform="translate(170.954913386 92.809492126)" d="M 0 0m 1.700787402 0c -0.938467276 0 -1.700787402 0.762320126 -1.700787402 1.700787402c 0 0.938467276 0.762320126 1.700787402 1.700787402 1.700787402c 0.938467276 0 1.700787402 -0.762320126 1.700787402 -1.700787402c 0 -0.938467276 -0.762320126 -1.700787402 -1.700787402 -1.700787402Z "/><path fill="#000000" fill-rule="nonzero" stroke="#000000" stroke-width="1" stroke-linecap="butt" stroke-linejoin="miter" stroke-miterlimit="4" transform="translate(199.301370079 100.604767717)" d="M 0 0m 1.700787402 0c -0.938467276 0 -1.700787402 0.762320126 -1.700787402 1.700787402c 0 0.938467276 0.762320126 1.700787402 1.700787402 1.700787402c 0.938467276 0 1.700787402 -0.762320126 1.700787402 -1.700787402c 0 -0.938467276 -0.762320126 -1.700787402 -1.700787402 -1.700787402Z "/><path fill="#000000" fill-rule="nonzero" stroke="#000000" stroke-width="1" stroke-linecap="butt" stroke-linejoin="miter" stroke-miterlimit="4" transform="translate(241.821055118 134.384295276)" d="M 0 0m 1.700787402 0c -0.938467276 0 -1.700787402 0.762320126 -1.700787402 1.700787402c 0 0.938467276 0.762320126 1.700787402 1.700787402 1.700787402c 0.938467276 0 1.700787402 -0.762320126 1.700787402 -1.700787402c 0 -0.938467276 -0.762320126 -1.700787402 -1.700787402 -1.700787402Z "/><path fill="#000000" fill-rule="nonzero" stroke="#000000" stroke-width="1" stroke-linecap="butt" stroke-linejoin="miter" stroke-miterlimit="4" transform="translate(270.167511811 166.864610236)" d="M 0 0m 1.700787402 0c -0.938467276 0 -1.700787402 0.762320126 -1.700787402 1.700787402c 0 0.938467276 0.762320126 1.700787402 1.700787402 1.700787402c 0.938467276 0 1.700787402 -0.762320126 1.700787402 -1.700787402c 0 -0.938467276 -0.762320126 -1.700787402 -1.700787402 -1.700787402Z "/></g><g transform="translate(32.732543307 199.2665)"><g transform="matrix(1 0 0 -1 0 7.8815)"><use xlink:href="#gC086F5205D4BE11F02D59855BB95536B" x="0" y="0" fill="#000000" fill-rule="nonzero"/><use xlink:href="#g8105CCAD23AC3F816555ADE218A87BA3" x="6.1985" y="0" fill="#000000" fill-rule="nonzero"/><use xlink:href="#gB434E4DE6948F304E8C2835D7E7D2FF2" x="8.8385" y="0" fill="#000000" fill-rule="nonzero"/><use xlink:href="#g8462BBF92C9A252A698AF9A4C6BCDE90" x="14.5585" y="0" fill="#000000" fill-rule="nonzero"/><use xlink:href="#g9CDA82D7C6087A7C735E0BA8B620E6A9" x="19.9705" y="0" fill="#000000" fill-rule="nonzero"/><use xlink:href="#g8462BBF92C9A252A698AF9A4C6BCDE90" x="26.3505" y="0" fill="#000000" fill-rule="nonzero"/><use xlink:href="#g8838A5AFE8A4C4BD9F956A0C4425BE0D" x="31.7625" y="0" fill="#000000" fill-rule="nonzero"/><use xlink:href="#gD2AA63ACF3A30583767DC45F0812F7C0" x="40.9585" y="0" fill="#000000" fill-rule="nonzero"/><use xlink:href="#gC08EB52A90F6C8802414B8D7844762B4" x="49.2085" y="0" fill="#000000" fill-rule="nonzero"/><use xlink:href="#g9C674704BA9B427AEB9EED7D565D1F0D" x="52.987" y="0" fill="#000000" fill-rule="nonzero"/><use xlink:href="#g8105CCAD23AC3F816555ADE218A87BA3" x="59.224" y="0" fill="#000000" fill-rule="nonzero"/><use xlink:href="#g4BE1DD0D0526A7283DD8BB16EC018A1" x="61.864" y="0" fill="#000000" fill-rule="nonzero"/><use xlink:href="#gBBFBBD718543D3A9AA39C774BA417C3F" x="65.78" y="0" fill="#000000" fill-rule="nonzero"/><use xlink:href="#gE8D63FD2986C5E245894841A492C47DD" x="74.404" y="0" fill="#000000" fill-rule="nonzero"/><use xlink:href="#gBBFBBD718543D3A9AA39C774BA417C3F" x="80.564" y="0" fill="#000000" fill-rule="nonzero"/><use xlink:href="#gC08EB52A90F6C8802414B8D7844762B4" x="89.188" y="0" fill="#000000" fill-rule="nonzero"/><use xlink:href="#g5FBFB3CD832EE821566533E138CF66E4" x="92.9665" y="0" fill="#000000" fill-rule="nonzero"/><use xlink:href="#gB434E4DE6948F304E8C2835D7E7D2FF2" x="98.7745" y="0" fill="#000000" fill-rule="nonzero"/><use xlink:href="#gC08EB52A90F6C8802414B8D7844762B4" x="104.4945" y="0" fill="#000000" fill-rule="nonzero"/><use xlink:href="#gBBFBBD718543D3A9AA39C774BA417C3F" x="108.273" y="0" fill="#000000" fill-rule="nonzero"/><use xlink:href="#gF457AFAEE3170D0B4FA719A7653C3D15" x="114.081" y="0" fill="#000000" fill-rule="nonzero"/><use xlink:href="#gF457AFAEE3170D0B4FA719A7653C3D15" x="118.844" y="0" fill="#000000" fill-rule="nonzero"/><use xlink:href="#g8105CCAD23AC3F816555ADE218A87BA3" x="123.607" y="0" fill="#000000" fill-rule="nonzero"/><use xlink:href="#g9C674704BA9B427AEB9EED7D565D1F0D" x="126.247" y="0" fill="#000000" fill-rule="nonzero"/><use xlink:href="#gD2DE1FC819581D5FA35DA0AF00F968BF" x="132.484" y="0" fill="#000000" fill-rule="nonzero"/><use xlink:href="#gE60F4A6B0ED54B776ACD2EE2C9C6347B" x="141.438" y="0" fill="#000000" fill-rule="nonzero"/><use xlink:href="#gC08EB52A90F6C8802414B8D7844762B4" x="147.6035" y="0" fill="#000000" fill-rule="nonzero"/><use xlink:href="#g9C674704BA9B427AEB9EED7D565D1F0D" x="151.382" y="0" fill="#000000" fill-rule="nonzero"/><use xlink:href="#gDF01D3E2135DD93BF20D05EAE8F9FA34" x="157.619" y="0" fill="#000000" fill-rule="nonzero"/><use xlink:href="#g9C674704BA9B427AEB9EED7D565D1F0D" x="160.215" y="0" fill="#000000" fill-rule="nonzero"/><use xlink:href="#gD2DE1FC819581D5FA35DA0AF00F968BF" x="166.452" y="0" fill="#000000" fill-rule="nonzero"/><use xlink:href="#gB434E4DE6948F304E8C2835D7E7D2FF2" x="172.59" y="0" fill="#000000" fill-rule="nonzero"/><use xlink:href="#g5FBFB3CD832EE821566533E138CF66E4" x="178.222" y="0" fill="#000000" fill-rule="nonzero"/><use xlink:href="#gBBFBBD718543D3A9AA39C774BA417C3F" x="184.03" y="0" fill="#000000" fill-rule="nonzero"/><use xlink:href="#g70061734F696B15746683841D09C91E5" x="192.654" y="0" fill="#000000" fill-rule="nonzero"/><use xlink:href="#g9C674704BA9B427AEB9EED7D565D1F0D" x="198.22" y="0" fill="#000000" fill-rule="nonzero"/><use xlink:href="#g9A853786B85A3F4F2DCA9335ECE51DCC" x="204.457" y="0" fill="#000000" fill-rule="nonzero"/><use xlink:href="#gDBCA8C53BDC90E5FB9B203BF3E01515" x="213.4055" y="0" fill="#000000" fill-rule="nonzero"/><use xlink:href="#g9C674704BA9B427AEB9EED7D565D1F0D" x="218.559" y="0" fill="#000000" fill-rule="nonzero"/><use xlink:href="#gEE9A066A740F79888974EE80C1B35719" x="224.796" y="0" fill="#000000" fill-rule="nonzero"/><use xlink:href="#gE60F4A6B0ED54B776ACD2EE2C9C6347B" x="230.9285" y="0" fill="#000000" fill-rule="nonzero"/><use xlink:href="#gBBFBBD718543D3A9AA39C774BA417C3F" x="237.094" y="0" fill="#000000" fill-rule="nonzero"/><use xlink:href="#g79F30941330D0E11990B0B9495380E00" x="242.902" y="0" fill="#000000" fill-rule="nonzero"/><use xlink:href="#g4BE1DD0D0526A7283DD8BB16EC018A1" x="246.9885" y="0" fill="#000000" fill-rule="nonzero"/><use xlink:href="#g79F30941330D0E11990B0B9495380E00" x="250.932" y="0" fill="#000000" fill-rule="nonzero"/><use xlink:href="#gBBFBBD718543D3A9AA39C774BA417C3F" x="255.0185" y="0" fill="#000000" fill-rule="nonzero"/><use xlink:href="#gDF01D3E2135DD93BF20D05EAE8F9FA34" x="260.8265" y="0" fill="#000000" fill-rule="nonzero"/><use xlink:href="#gDF01D3E2135DD93BF20D05EAE8F9FA34" x="263.4225" y="0" fill="#000000" fill-rule="nonzero"/><use xlink:href="#gBBFBBD718543D3A9AA39C774BA417C3F" x="266.0185" y="0" fill="#000000" fill-rule="nonzero"/><use xlink:href="#gDF01D3E2135DD93BF20D05EAE8F9FA34" x="274.6425" y="0" fill="#000000" fill-rule="nonzero"/><use xlink:href="#g8CCE5EDC67A04384DBF9782B85B99D0" x="277.2385" y="0" fill="#000000" fill-rule="nonzero"/><use xlink:href="#gB814AC5DAF153C4FD7E9628E643E98D0" x="279.3065" y="0" fill="#000000" fill-rule="nonzero"/><use xlink:href="#g38ADC557D1491E29BB8B96D8D208459" x="284.7735" y="0" fill="#000000" fill-rule="nonzero"/><use xlink:href="#gBBFBBD718543D3A9AA39C774BA417C3F" x="290.004" y="0" fill="#000000" fill-rule="nonzero"/><use xlink:href="#gA88CCB36EBC8F86D99DBA056F7DE0440" x="298.628" y="0" fill="#000000" fill-rule="nonzero"/></g></g></g><defs><symbol id="gF33465DF61AEC2C91C9269A44E9C5550" overflow="visible"><path d="M 0 0m 0.517 0h 5.258v 0.594c 0 0.209 -0.132 0.33 -0.341 0.33h -2.64c -0.33 0 -0.616 -0.055 -0.88 -0.132l 2.068 2.134c 0.913 0.935 1.639 1.694 1.639 2.849c 0 1.122 -0.748 2.189 -2.365 2.189c -1.518 0 -2.387 -0.88 -2.574 -2.222c 0 0 0.55 -0.099 0.605 -0.099c 0.22 0 0.33 0.11 0.396 0.308c 0.154 0.682 0.682 1.177 1.518 1.177c 0.869 0 1.419 -0.506 1.419 -1.386c 0 -0.99 -0.649 -1.694 -1.397 -2.453l -2.519 -2.541c -0.099 -0.099 -0.187 -0.231 -0.187 -0.418Z "/></symbol><symbol id="g4E546F2B196C04380773CE30D47169C8" overflow="visible"><path d="M 0 0m 0.132 2.794l 0.088 -0.506c 0.022 -0.121 0.154 -0.22 0.297 -0.22h 3.498v -2.068h 0.858v 2.068h 0.979c 0.132 0 0.22 0.088 0.22 0.22v 0.55h -1.199v 5.038h -0.913Z m 1.056 0.044l 2.871 3.916c -0.022 -0.209 -0.044 -0.44 -0.044 -0.66v -3.256Z "/></symbol><symbol id="g94C810941F70236CE1CFA5F941036EA1" overflow="visible"><path d="M 0 0m 0.594 2.596c 0 -1.419 0.814 -2.684 2.607 -2.684c 1.518 0 2.695 1.056 2.695 2.574c 0 1.265 -0.836 2.343 -2.332 2.343c -0.572 0 -0.99 -0.165 -1.342 -0.407c 0.121 0.187 0.242 0.33 0.385 0.506l 2.343 2.948h -0.88c -0.231 0 -0.418 -0.099 -0.517 -0.231l -2.002 -2.695c -0.759 -1.012 -0.957 -1.804 -0.957 -2.354Z m 0.946 -0.165c 0 0.957 0.682 1.65 1.716 1.65c 0.781 0 1.672 -0.462 1.672 -1.672c 0 -0.781 -0.517 -1.683 -1.749 -1.683c -1.045 0 -1.639 0.66 -1.639 1.705Z "/></symbol><symbol id="g8A016244ED88B943537A526DBF45A58B" overflow="visible"><path d="M 0 0m 0.528 2.156c 0 -1.199 0.902 -2.244 2.662 -2.244c 1.727 0 2.662 1.001 2.662 2.244c 0 1.111 -0.638 1.705 -1.54 1.958c 0.737 0.275 1.254 0.836 1.254 1.782c 0 1.166 -0.902 2.068 -2.376 2.068c -1.331 0 -2.376 -0.792 -2.376 -2.068c 0 -0.946 0.517 -1.507 1.254 -1.782c -0.913 -0.264 -1.54 -0.847 -1.54 -1.958Z m 1.012 0.022c 0 0.99 0.66 1.518 1.65 1.518c 0.99 0 1.65 -0.517 1.65 -1.518c 0 -0.902 -0.616 -1.485 -1.65 -1.485c -0.968 0 -1.65 0.517 -1.65 1.485Z m 0.22 3.696c 0 0.836 0.572 1.342 1.43 1.342c 0.792 0 1.43 -0.484 1.43 -1.342c 0 -0.88 -0.528 -1.397 -1.43 -1.397c -0.902 0 -1.43 0.517 -1.43 1.397Z "/></symbol><symbol id="g5B80D8A310BA63B987ECB2626BE4971A" overflow="visible"><path d="M 0 0m 0.902 5.874l 0.308 -0.429c 0.044 -0.077 0.154 -0.11 0.253 -0.11c 0.077 0 0.154 0.022 0.209 0.077l 1.408 1.199c -0.011 -0.165 -0.022 -0.33 -0.022 -0.495v -5.368h -1.683v -0.748h 4.224v 0.748h -1.551v 7.15h -0.792Z "/></symbol><symbol id="g42D816FE47F5E280BA401E8EC916AEBD" overflow="visible"><path d="M 0 0m 0.33 3.938c 0 -2.695 1.188 -4.026 2.86 -4.026c 1.496 0 2.86 1.155 2.86 4.026c 0 2.761 -1.243 4.026 -2.86 4.026c -1.617 0 -2.86 -1.221 -2.86 -4.026Z m 1.012 0c 0 1.287 0.264 3.201 1.848 3.201c 1.595 0 1.848 -1.969 1.848 -3.201c 0 -1.331 -0.286 -3.19 -1.848 -3.19c -1.782 0 -1.848 2.431 -1.848 3.19Z "/></symbol><symbol id="gCE3D0C1E7FB1BF8475D5506AE6A36C53" overflow="visible"><path d="M 0 0m 0.561 4.917c 0 -0.099 0.055 -0.165 0.154 -0.165h 0.616l -0.341 -2.794c -0.033 -0.319 -0.077 -0.484 -0.077 -0.792c 0 -0.858 0.429 -1.254 1.144 -1.254c 0.539 0 1.001 0.231 1.309 0.506l -0.209 0.462c -0.022 0.055 -0.044 0.099 -0.121 0.099c -0.121 0 -0.275 -0.264 -0.671 -0.264c -0.33 0 -0.484 0.187 -0.484 0.605c 0 0.187 0.033 0.418 0.066 0.693l 0.352 2.739h 1.463l 0.077 0.704h -1.452l 0.231 1.925h -0.517c -0.132 0 -0.198 -0.077 -0.22 -0.187l -0.418 -1.716l -0.858 -0.121c 0 0 -0.044 -0.396 -0.044 -0.44Z "/></symbol><symbol id="gF712410779C220ED54F30A780833386D" overflow="visible"><path d="M 0 0m 1.3475 3.4595q 0 -1.177 0.29975 -2.288q 0.29975 -1.111 0.87725 -2.112q 0.088 -0.1705 0.044 -0.26125q -0.044 -0.09075 -0.1265 -0.14575l -0.4345 -0.264q -0.4125 0.6325 -0.70125 1.254q -0.28875 0.6215 -0.4675 1.2485q -0.17875 0.627 -0.26125 1.26225q -0.0825 0.63525 -0.0825 1.30625q 0 0.6655 0.0825 1.3035q 0.0825 0.638 0.26125 1.26225q 0.17875 0.62425 0.4675 1.24575q 0.28875 0.6215 0.70125 1.2595l 0.4345 -0.2695q 0.0825 -0.055 0.1265 -0.14575q 0.044 -0.09075 -0.044 -0.25575q -0.5775 -1.001 -0.87725 -2.112q -0.29975 -1.111 -0.29975 -2.288Z "/></symbol><symbol id="gB814AC5DAF153C4FD7E9628E643E98D0" overflow="visible"><path d="M 0 0m 3.795 2.508q -0.6765 -0.022 -1.15225 -0.10725q -0.47575 -0.08525 -0.7755 -0.22275q -0.29975 -0.1375 -0.4345 -0.3245q -0.13475 -0.187 -0.13475 -0.418q 0 -0.22 0.0715 -0.3795q 0.0715 -0.1595 0.19525 -0.26125q 0.12375 -0.10175 0.2915 -0.1485q 0.16775 -0.04675 0.36025 -0.04675q 0.2585 0 0.473 0.05225q 0.2145 0.05225 0.40425 0.15125q 0.18975 0.099 0.363 0.2365q 0.17325 0.1375 0.33825 0.3135v 1.155Z m -3.1625 2.277q 0.462 0.4455 0.9955 0.6655q 0.5335 0.22 1.1825 0.22q 0.4675 0 0.8305 -0.154q 0.363 -0.154 0.6105 -0.429q 0.2475 -0.275 0.374 -0.6655q 0.1265 -0.3905 0.1265 -0.858v -3.564h -0.4345q -0.143 0 -0.22 0.04675q -0.077 0.04675 -0.121 0.18425l -0.11 0.528q -0.22 -0.2035 -0.429 -0.36025q -0.209 -0.15675 -0.44 -0.264q -0.231 -0.10725 -0.49225 -0.165q -0.26125 -0.05775 -0.58025 -0.05775q -0.3245 0 -0.6105 0.09075q -0.286 0.09075 -0.49775 0.27225q -0.21175 0.1815 -0.3355 0.45925q -0.12375 0.27775 -0.12375 0.65725q 0 0.33 0.1815 0.63525q 0.1815 0.30525 0.5885 0.54175q 0.407 0.2365 1.0615 0.38775q 0.6545 0.15125 1.606 0.17325v 0.4345q 0 0.649 -0.2805 0.98175q -0.2805 0.33275 -0.8195 0.33275q -0.363 0 -0.60775 -0.09075q -0.24475 -0.09075 -0.4235 -0.2035q -0.17875 -0.11275 -0.308 -0.2035q -0.12925 -0.09075 -0.25575 -0.09075q -0.099 0 -0.1705 0.05225q -0.0715 0.05225 -0.121 0.12925l -0.176 0.3135Z "/></symbol><symbol id="gD2DE1FC819581D5FA35DA0AF00F968BF" overflow="visible"><path d="M 0 0m 1.6995 4.763q 0.1815 0.2035 0.385 0.3685q 0.2035 0.165 0.43175 0.28325q 0.22825 0.11825 0.484 0.1815q 0.25575 0.06325 0.55275 0.06325q 0.4565 0 0.80575 -0.15125q 0.34925 -0.15125 0.583 -0.429q 0.23375 -0.27775 0.35475 -0.66825q 0.121 -0.3905 0.121 -0.8635v -3.5475h -0.9845v 3.5475q 0 0.6325 -0.28875 0.98175q -0.28875 0.34925 -0.87725 0.34925q -0.4345 0 -0.81125 -0.209q -0.37675 -0.209 -0.69575 -0.5665v -4.103h -0.9845v 5.5715h 0.5885q 0.209 0 0.2585 -0.2035l 0.077 -0.605Z "/></symbol><symbol id="g5FBFB3CD832EE821566533E138CF66E4" overflow="visible"><path d="M 0 0m 4.5045 3.3935q 0 0.341 -0.09625 0.62425q -0.09625 0.28325 -0.2805 0.4895q -0.18425 0.20625 -0.44825 0.319q -0.264 0.11275 -0.5995 0.11275q -0.704 0 -1.11375 -0.40975q -0.40975 -0.40975 -0.50875 -1.13575h 3.047Z m 0.792 -2.6125q -0.1815 -0.22 -0.4345 -0.38225q -0.253 -0.16225 -0.54175 -0.26675q -0.28875 -0.1045 -0.59675 -0.15675q -0.308 -0.05225 -0.6105 -0.05225q -0.5775 0 -1.06425 0.19525q -0.48675 0.19525 -0.8415 0.572q -0.35475 0.37675 -0.55275 0.93225q -0.198 0.5555 -0.198 1.276q 0 0.583 0.17875 1.089q 0.17875 0.506 0.51425 0.87725q 0.3355 0.37125 0.8195 0.583q 0.484 0.21175 1.089 0.21175q 0.5005 0 0.92675 -0.16775q 0.42625 -0.16775 0.737 -0.484q 0.31075 -0.31625 0.48675 -0.781q 0.176 -0.46475 0.176 -1.05875q 0 -0.231 -0.0495 -0.308q -0.0495 -0.077 -0.187 -0.077h -3.7235q 0.0165 -0.528 0.14575 -0.9185q 0.12925 -0.3905 0.36025 -0.65175q 0.231 -0.26125 0.55 -0.3905q 0.319 -0.12925 0.715 -0.12925q 0.3685 0 0.63525 0.08525q 0.26675 0.08525 0.45925 0.18425q 0.1925 0.099 0.32175 0.18425q 0.12925 0.08525 0.22275 0.08525q 0.121 0 0.187 -0.0935l 0.275 -0.3575Z m -0.616 7.1885l -1.2815 -1.419q -0.077 -0.0825 -0.15125 -0.11825q -0.07425 -0.03575 -0.18975 -0.03575h -0.583l 0.814 1.331q 0.077 0.1265 0.16775 0.18425q 0.09075 0.05775 0.26675 0.05775h 0.957Z "/></symbol><symbol id="gBBFBBD718543D3A9AA39C774BA417C3F" overflow="visible"><path d="M 0 0m 4.5045 3.3935q 0 0.341 -0.09625 0.62425q -0.09625 0.28325 -0.2805 0.4895q -0.18425 0.20625 -0.44825 0.319q -0.264 0.11275 -0.5995 0.11275q -0.704 0 -1.11375 -0.40975q -0.40975 -0.40975 -0.50875 -1.13575h 3.047Z m 0.792 -2.6125q -0.1815 -0.22 -0.4345 -0.38225q -0.253 -0.16225 -0.54175 -0.26675q -0.28875 -0.1045 -0.59675 -0.15675q -0.308 -0.05225 -0.6105 -0.05225q -0.5775 0 -1.06425 0.19525q -0.48675 0.19525 -0.8415 0.572q -0.35475 0.37675 -0.55275 0.93225q -0.198 0.5555 -0.198 1.276q 0 0.583 0.17875 1.089q 0.17875 0.506 0.51425 0.87725q 0.3355 0.37125 0.8195 0.583q 0.484 0.21175 1.089 0.21175q 0.5005 0 0.92675 -0.16775q 0.42625 -0.16775 0.737 -0.484q 0.31075 -0.31625 0.48675 -0.781q 0.176 -0.46475 0.176 -1.05875q 0 -0.231 -0.0495 -0.308q -0.0495 -0.077 -0.187 -0.077h -3.7235q 0.0165 -0.528 0.14575 -0.9185q 0.12925 -0.3905 0.36025 -0.65175q 0.231 -0.26125 0.55 -0.3905q 0.319 -0.12925 0.715 -0.12925q 0.3685 0 0.63525 0.08525q 0.26675 0.08525 0.45925 0.18425q 0.1925 0.099 0.32175 0.18425q 0.12925 0.08525 0.22275 0.08525q 0.121 0 0.187 -0.0935l 0.275 -0.3575Z "/></symbol><symbol id="gF457AFAEE3170D0B4FA719A7653C3D15" overflow="visible"><path d="M 0 0m 4.0205 4.653q -0.066 -0.121 -0.2035 -0.121q -0.0825 0 -0.187 0.0605q -0.1045 0.0605 -0.25575 0.13475q -0.15125 0.07425 -0.36025 0.1375q -0.209 0.06325 -0.495 0.06325q -0.2475 0 -0.4455 -0.06325q -0.198 -0.06325 -0.33825 -0.17325q -0.14025 -0.11 -0.2145 -0.25575q -0.07425 -0.14575 -0.07425 -0.31625q 0 -0.2145 0.12375 -0.3575q 0.12375 -0.143 0.32725 -0.2475q 0.2035 -0.1045 0.462 -0.18425q 0.2585 -0.07975 0.53075 -0.1705q 0.27225 -0.09075 0.53075 -0.20075q 0.2585 -0.11 0.462 -0.275q 0.2035 -0.165 0.32725 -0.40425q 0.12375 -0.23925 0.12375 -0.57475q 0 -0.385 -0.1375 -0.71225q -0.1375 -0.32725 -0.407 -0.5665q -0.2695 -0.23925 -0.66 -0.37675q -0.3905 -0.1375 -0.902 -0.1375q -0.583 0 -1.056 0.18975q -0.473 0.18975 -0.803 0.48675l 0.231 0.374q 0.044 0.0715 0.1045 0.11q 0.0605 0.0385 0.154 0.0385q 0.099 0 0.209 -0.077q 0.11 -0.077 0.26675 -0.1705q 0.15675 -0.0935 0.38225 -0.1705q 0.2255 -0.077 0.561 -0.077q 0.286 0 0.5005 0.07425q 0.2145 0.07425 0.3575 0.20075q 0.143 0.1265 0.21175 0.2915q 0.06875 0.165 0.06875 0.352q 0 0.231 -0.12375 0.38225q -0.12375 0.15125 -0.32725 0.2585q -0.2035 0.10725 -0.46475 0.187q -0.26125 0.07975 -0.5335 0.16775q -0.27225 0.088 -0.5335 0.20075q -0.26125 0.11275 -0.46475 0.28325q -0.2035 0.1705 -0.32725 0.42075q -0.12375 0.25025 -0.12375 0.60775q 0 0.319 0.132 0.61325q 0.132 0.29425 0.385 0.517q 0.253 0.22275 0.6215 0.35475q 0.3685 0.132 0.8415 0.132q 0.55 0 0.98725 -0.17325q 0.43725 -0.17325 0.75625 -0.47575l -0.22 -0.3575Z "/></symbol><symbol id="g662B771DC9992A5B629DDF4470B6033E" overflow="visible"><path d="M 0 0m 1.5895 3.4595q 0 1.177 -0.29975 2.288q -0.29975 1.111 -0.87725 2.112q -0.044 0.0825 -0.055 0.14575q -0.011 0.06325 0.0055 0.11q 0.0165 0.04675 0.05225 0.0825q 0.03575 0.03575 0.07975 0.06325l 0.4345 0.2695q 0.4125 -0.638 0.70125 -1.2595q 0.28875 -0.6215 0.4675 -1.24575q 0.17875 -0.62425 0.26125 -1.26225q 0.0825 -0.638 0.0825 -1.3035q 0 -0.671 -0.0825 -1.30625q -0.0825 -0.63525 -0.26125 -1.26225q -0.17875 -0.627 -0.4675 -1.2485q -0.28875 -0.6215 -0.70125 -1.254l -0.4345 0.264q -0.044 0.0275 -0.07975 0.06325q -0.03575 0.03575 -0.05225 0.0825q -0.0165 0.04675 -0.0055 0.11275q 0.011 0.066 0.055 0.1485q 0.5775 1.001 0.87725 2.112q 0.29975 1.111 0.29975 2.288Z "/></symbol><symbol id="g6EA347C04718A1BCFF3B55801A41A1E7" overflow="visible"><path d="M 0 0m 5.8685 0.869l -0.0055 -0.869h -4.8565v 7.8815h 4.8565v -0.869h -3.7895v -2.618h 3.069v -0.836h -3.069v -2.6895h 3.795Z m -0.286 9.317l -1.793 -1.573q -0.0825 -0.077 -0.1595 -0.0935q -0.077 -0.0165 -0.187 -0.0165h -0.704l 1.2705 1.507q 0.0935 0.121 0.18975 0.1485q 0.09625 0.0275 0.27775 0.0275h 1.1055Z "/></symbol><symbol id="gDBCA8C53BDC90E5FB9B203BF3E01515" overflow="visible"><path d="M 0 0m 4.653 4.5815q -0.044 -0.0605 -0.088 -0.0935q -0.044 -0.033 -0.121 -0.033q -0.0825 0 -0.1815 0.06875q -0.099 0.06875 -0.24475 0.15125q -0.14575 0.0825 -0.3575 0.15125q -0.21175 0.06875 -0.51975 0.06875q -0.4125 0 -0.726 -0.14575q -0.3135 -0.14575 -0.52525 -0.42075q -0.21175 -0.275 -0.319 -0.6655q -0.10725 -0.3905 -0.10725 -0.8745q 0 -0.506 0.1155 -0.89925q 0.1155 -0.39325 0.32725 -0.66q 0.21175 -0.26675 0.5115 -0.407q 0.29975 -0.14025 0.67375 -0.14025q 0.3575 0 0.5885 0.08525q 0.231 0.08525 0.38225 0.18975q 0.15125 0.1045 0.253 0.18975q 0.10175 0.08525 0.20075 0.08525q 0.121 0 0.187 -0.0935l 0.275 -0.3575q -0.1815 -0.2255 -0.4125 -0.385q -0.231 -0.1595 -0.49775 -0.26675q -0.26675 -0.10725 -0.55825 -0.15675q -0.2915 -0.0495 -0.594 -0.0495q -0.5225 0 -0.97075 0.1925q -0.44825 0.1925 -0.77825 0.55825q -0.33 0.36575 -0.517 0.89925q -0.187 0.5335 -0.187 1.2155q 0 0.6215 0.17325 1.1495q 0.17325 0.528 0.506 0.91025q 0.33275 0.38225 0.8195 0.59675q 0.48675 0.2145 1.11925 0.2145q 0.5885 0 1.03675 -0.18975q 0.44825 -0.18975 0.79475 -0.53625l -0.2585 -0.352Z "/></symbol><symbol id="gC08EB52A90F6C8802414B8D7844762B4" overflow="visible"><path d="M 0 0m 1.705 4.455q 0.264 0.572 0.649 0.89375q 0.385 0.32175 0.9405 0.32175q 0.176 0 0.33825 -0.0385q 0.16225 -0.0385 0.28875 -0.121l -0.0715 -0.7315q -0.033 -0.1375 -0.165 -0.1375q -0.077 0 -0.2255 0.033q -0.1485 0.033 -0.3355 0.033q -0.264 0 -0.47025 -0.077q -0.20625 -0.077 -0.3685 -0.22825q -0.16225 -0.15125 -0.2915 -0.374q -0.12925 -0.22275 -0.23375 -0.50875v -3.52h -0.9845v 5.5715h 0.561q 0.1595 0 0.22 -0.0605q 0.0605 -0.0605 0.0825 -0.209l 0.066 -0.847Z "/></symbol><symbol id="g4BE1DD0D0526A7283DD8BB16EC018A1" overflow="visible"><path d="M 0 0m 2.486 -0.088q -0.66 0 -1.01475 0.3685q -0.35475 0.3685 -0.35475 1.0615v 3.41h -0.671q -0.088 0 -0.1485 0.05225q -0.0605 0.05225 -0.0605 0.16225v 0.3905l 0.913 0.1155l 0.2255 1.7215q 0.0165 0.0825 0.07425 0.13475q 0.05775 0.05225 0.15125 0.05225h 0.495v -1.9195h 1.6115v -0.7095h -1.6115v -3.344q 0 -0.352 0.1705 -0.5225q 0.1705 -0.1705 0.44 -0.1705q 0.154 0 0.26675 0.04125q 0.11275 0.04125 0.19525 0.09075q 0.0825 0.0495 0.14025 0.09075q 0.05775 0.04125 0.10175 0.04125q 0.077 0 0.1375 -0.0935l 0.286 -0.4675q -0.253 -0.2365 -0.6105 -0.37125q -0.3575 -0.13475 -0.737 -0.13475Z "/></symbol><symbol id="g28D199F63CDAA27A42D9F13EB8DD6058" overflow="visible"><path d="M 0 0m 3.971 5.9785q 0 -0.462 -0.143 -0.82775q -0.143 -0.36575 -0.38225 -0.616q -0.23925 -0.25025 -0.5555 -0.38225q -0.31625 -0.132 -0.66825 -0.132q -0.3685 0 -0.6875 0.132q -0.319 0.132 -0.55275 0.38225q -0.23375 0.25025 -0.36575 0.616q -0.132 0.36575 -0.132 0.82775q 0 0.473 0.132 0.8415q 0.132 0.3685 0.36575 0.6215q 0.23375 0.253 0.55275 0.385q 0.319 0.132 0.6875 0.132q 0.374 0 0.693 -0.132q 0.319 -0.132 0.5555 -0.385q 0.2365 -0.253 0.3685 -0.6215q 0.132 -0.3685 0.132 -0.8415Z m -0.759 0q 0 0.363 -0.077 0.616q -0.077 0.253 -0.21175 0.41525q -0.13475 0.16225 -0.31625 0.23375q -0.1815 0.0715 -0.385 0.0715q -0.2035 0 -0.3795 -0.0715q -0.176 -0.0715 -0.308 -0.23375q -0.132 -0.16225 -0.209 -0.41525q -0.077 -0.253 -0.077 -0.616q 0 -0.3575 0.077 -0.60775q 0.077 -0.25025 0.209 -0.407q 0.132 -0.15675 0.308 -0.2255q 0.176 -0.06875 0.3795 -0.06875q 0.2035 0 0.385 0.06875q 0.1815 0.06875 0.31625 0.2255q 0.13475 0.15675 0.21175 0.407q 0.077 0.25025 0.077 0.60775Z m 3.5475 1.738q 0.055 0.066 0.12925 0.1155q 0.07425 0.0495 0.20075 0.0495h 0.7095l -5.764 -7.722q -0.0495 -0.0715 -0.1265 -0.1155q -0.077 -0.044 -0.187 -0.044h -0.7205l 5.7585 7.7165Z m 1.573 -5.8575q 0 -0.462 -0.143 -0.825q -0.143 -0.363 -0.38225 -0.61325q -0.23925 -0.25025 -0.5555 -0.38225q -0.31625 -0.132 -0.66825 -0.132q -0.374 0 -0.69025 0.132q -0.31625 0.132 -0.55 0.38225q -0.23375 0.25025 -0.36575 0.61325q -0.132 0.363 -0.132 0.825q 0 0.473 0.132 0.84425q 0.132 0.37125 0.36575 0.62425q 0.23375 0.253 0.55 0.385q 0.31625 0.132 0.69025 0.132q 0.3685 0 0.69025 -0.132q 0.32175 -0.132 0.5555 -0.385q 0.23375 -0.253 0.3685 -0.62425q 0.13475 -0.37125 0.13475 -0.84425Z m -0.759 0q 0 0.363 -0.077 0.61875q -0.077 0.25575 -0.21175 0.41525q -0.13475 0.1595 -0.31625 0.231q -0.1815 0.0715 -0.385 0.0715q -0.2035 0 -0.38225 -0.0715q -0.17875 -0.0715 -0.31075 -0.231q -0.132 -0.1595 -0.20625 -0.41525q -0.07425 -0.25575 -0.07425 -0.61875q 0 -0.3575 0.07425 -0.605q 0.07425 -0.2475 0.20625 -0.40425q 0.132 -0.15675 0.31075 -0.2255q 0.17875 -0.06875 0.38225 -0.06875q 0.2035 0 0.385 0.06875q 0.1815 0.06875 0.31625 0.2255q 0.13475 0.15675 0.21175 0.40425q 0.077 0.2475 0.077 0.605Z "/></symbol><symbol id="gC086F5205D4BE11F02D59855BB95536B" overflow="visible"><path d="M 0 0m 2.0735 7.0125v -2.7555h 3.2395v -0.869h -3.2395v -3.388h -1.067v 7.8815h 4.8565v -0.869h -3.7895Z "/></symbol><symbol id="g8105CCAD23AC3F816555ADE218A87BA3" overflow="visible"><path d="M 0 0m 1.8095 5.5715v -5.5715h -0.979v 5.5715h 0.979Z m 0.209 1.749q 0 -0.143 -0.05775 -0.26675q -0.05775 -0.12375 -0.154 -0.22q -0.09625 -0.09625 -0.2255 -0.15125q -0.12925 -0.055 -0.27225 -0.055q -0.143 0 -0.26675 0.055q -0.12375 0.055 -0.21725 0.15125q -0.0935 0.09625 -0.1485 0.22q -0.055 0.12375 -0.055 0.26675q 0 0.143 0.055 0.27225q 0.055 0.12925 0.1485 0.2255q 0.0935 0.09625 0.21725 0.15125q 0.12375 0.055 0.26675 0.055q 0.143 0 0.27225 -0.055q 0.12925 -0.055 0.2255 -0.15125q 0.09625 -0.09625 0.154 -0.2255q 0.05775 -0.12925 0.05775 -0.27225Z "/></symbol><symbol id="gB434E4DE6948F304E8C2835D7E7D2FF2" overflow="visible"><path d="M 0 0m 2.717 2.7225q 0.297 0 0.5225 0.0825q 0.2255 0.0825 0.3795 0.231q 0.154 0.1485 0.231 0.35475q 0.077 0.20625 0.077 0.45375q 0 0.5115 -0.31075 0.814q -0.31075 0.3025 -0.89925 0.3025q -0.594 0 -0.90475 -0.3025q -0.31075 -0.3025 -0.31075 -0.814q 0 -0.2475 0.07975 -0.45375q 0.07975 -0.20625 0.23375 -0.35475q 0.154 -0.1485 0.3795 -0.231q 0.2255 -0.0825 0.5225 -0.0825Z m 1.7655 -3.025q 0 0.2035 -0.1155 0.33q -0.1155 0.1265 -0.31075 0.198q -0.19525 0.0715 -0.45375 0.10175q -0.2585 0.03025 -0.54725 0.04675q -0.28875 0.0165 -0.58575 0.033q -0.297 0.0165 -0.572 0.055q -0.308 -0.143 -0.50325 -0.36025q -0.19525 -0.21725 -0.19525 -0.50875q 0 -0.187 0.09625 -0.34925q 0.09625 -0.16225 0.29425 -0.2805q 0.198 -0.11825 0.49775 -0.187q 0.29975 -0.06875 0.70675 -0.06875q 0.396 0 0.7095 0.0715q 0.3135 0.0715 0.53075 0.2035q 0.21725 0.132 0.33275 0.3135q 0.1155 0.1815 0.1155 0.4015Z m 0.9955 5.654v -0.363q 0 -0.1815 -0.231 -0.231l -0.6325 -0.0825q 0.187 -0.363 0.187 -0.803q 0 -0.407 -0.15675 -0.73975q -0.15675 -0.33275 -0.43175 -0.56925q -0.275 -0.2365 -0.66 -0.363q -0.385 -0.1265 -0.836 -0.1265q -0.3905 0 -0.737 0.0935q -0.176 -0.11 -0.2695 -0.23375q -0.0935 -0.12375 -0.0935 -0.25025q 0 -0.198 0.16225 -0.29975q 0.16225 -0.10175 0.42625 -0.14575q 0.264 -0.044 0.60225 -0.055q 0.33825 -0.011 0.693 -0.03575q 0.35475 -0.02475 0.693 -0.08525q 0.33825 -0.0605 0.60225 -0.198q 0.264 -0.1375 0.42625 -0.3795q 0.16225 -0.242 0.16225 -0.627q 0 -0.3575 -0.17875 -0.693q -0.17875 -0.3355 -0.51425 -0.59675q -0.3355 -0.26125 -0.82225 -0.418q -0.48675 -0.15675 -1.09725 -0.15675q -0.6105 0 -1.067 0.121q -0.4565 0.121 -0.759 0.3245q -0.3025 0.2035 -0.45375 0.47025q -0.15125 0.26675 -0.15125 0.55825q 0 0.4125 0.2585 0.6985q 0.2585 0.286 0.7095 0.4565q -0.2475 0.11 -0.39325 0.29425q -0.14575 0.18425 -0.14575 0.49775q 0 0.121 0.044 0.25025q 0.044 0.12925 0.13475 0.2585q 0.09075 0.12925 0.22275 0.24475q 0.132 0.1155 0.308 0.2035q -0.4125 0.231 -0.6435 0.61325q -0.231 0.38225 -0.231 0.88825q 0 0.407 0.15675 0.73975q 0.15675 0.33275 0.43725 0.5665q 0.2805 0.23375 0.66825 0.36025q 0.38775 0.1265 0.84975 0.1265q 0.363 0 0.6765 -0.07975q 0.3135 -0.07975 0.572 -0.23375h 1.5125Z "/></symbol><symbol id="g8462BBF92C9A252A698AF9A4C6BCDE90" overflow="visible"><path d="M 0 0m 0.6105 0.605q 0 0.143 0.05225 0.2695q 0.05225 0.1265 0.143 0.22q 0.09075 0.0935 0.21725 0.1485q 0.1265 0.055 0.2695 0.055q 0.143 0 0.2695 -0.055q 0.1265 -0.055 0.22 -0.1485q 0.0935 -0.0935 0.1485 -0.22q 0.055 -0.1265 0.055 -0.2695q 0 -0.1485 -0.055 -0.27225q -0.055 -0.12375 -0.1485 -0.21725q -0.0935 -0.0935 -0.22 -0.14575q -0.1265 -0.05225 -0.2695 -0.05225q -0.143 0 -0.2695 0.05225q -0.1265 0.05225 -0.21725 0.14575q -0.09075 0.0935 -0.143 0.21725q -0.05225 0.12375 -0.05225 0.27225Z "/></symbol><symbol id="g9CDA82D7C6087A7C735E0BA8B620E6A9" overflow="visible"><path d="M 0 0m 5.599 0.748v -0.748h -4.224v 0.748h 1.6885v 5.3735q 0 0.242 0.0165 0.4895l -1.4025 -1.2045q -0.0715 -0.0605 -0.143 -0.07425q -0.0715 -0.01375 -0.132 -0.00275q -0.0605 0.011 -0.11275 0.044q -0.05225 0.033 -0.07975 0.0715l -0.308 0.4235l 2.3485 2.0295h 0.7975v -7.15h 1.551Z "/></symbol><symbol id="g8838A5AFE8A4C4BD9F956A0C4425BE0D" overflow="visible"><path d="M 0 0m 0.99 3.6025h 4.4v -0.715h -4.4v 0.715Z "/></symbol><symbol id="gD2AA63ACF3A30583767DC45F0812F7C0" overflow="visible"><path d="M 0 0m 7.8375 3.938q 0 -0.8855 -0.2805 -1.6115q -0.2805 -0.726 -0.792 -1.243q -0.5115 -0.517 -1.22925 -0.80025q -0.71775 -0.28325 -1.58675 -0.28325h -2.9425v 7.8815h 2.9425q 0.869 0 1.58675 -0.28325q 0.71775 -0.28325 1.22925 -0.803q 0.5115 -0.51975 0.792 -1.24575q 0.2805 -0.726 0.2805 -1.6115Z m -1.0945 0q 0 0.726 -0.198 1.298q -0.198 0.572 -0.561 0.968q -0.363 0.396 -0.88 0.605q -0.517 0.209 -1.155 0.209h -1.8755v -6.1545h 1.8755q 0.638 0 1.155 0.209q 0.517 0.209 0.88 0.60225q 0.363 0.39325 0.561 0.96525q 0.198 0.572 0.198 1.298Z "/></symbol><symbol id="g9C674704BA9B427AEB9EED7D565D1F0D" overflow="visible"><path d="M 0 0m 3.124 5.6595q 0.6105 0 1.1 -0.2035q 0.4895 -0.2035 0.836 -0.5775q 0.3465 -0.374 0.53075 -0.90475q 0.18425 -0.53075 0.18425 -1.18525q 0 -0.66 -0.18425 -1.188q -0.18425 -0.528 -0.53075 -0.902q -0.3465 -0.374 -0.836 -0.57475q -0.4895 -0.20075 -1.1 -0.20075q -0.616 0 -1.10825 0.20075q -0.49225 0.20075 -0.83875 0.57475q -0.3465 0.374 -0.53075 0.902q -0.18425 0.528 -0.18425 1.188q 0 0.6545 0.18425 1.18525q 0.18425 0.53075 0.53075 0.90475q 0.3465 0.374 0.83875 0.5775q 0.49225 0.2035 1.10825 0.2035Z m 0 -4.972q 0.825 0 1.232 0.55275q 0.407 0.55275 0.407 1.54275q 0 0.9955 -0.407 1.551q -0.407 0.5555 -1.232 0.5555q -0.418 0 -0.72875 -0.143q -0.31075 -0.143 -0.517 -0.4125q -0.20625 -0.2695 -0.308 -0.66275q -0.10175 -0.39325 -0.10175 -0.88825q 0 -0.99 0.40975 -1.54275q 0.40975 -0.55275 1.24575 -0.55275Z "/></symbol><symbol id="gE8D63FD2986C5E245894841A492C47DD" overflow="visible"><path d="M 0 0m 4.4055 4.246q -0.275 0.3685 -0.594 0.51425q -0.319 0.14575 -0.715 0.14575q -0.7755 0 -1.1935 -0.5555q -0.418 -0.5555 -0.418 -1.584q 0 -0.5445 0.0935 -0.93225q 0.0935 -0.38775 0.275 -0.638q 0.1815 -0.25025 0.4455 -0.36575q 0.264 -0.1155 0.5995 -0.1155q 0.484 0 0.84425 0.22q 0.36025 0.22 0.66275 0.6215v 2.6895Z m 0.979 3.8555v -8.1015h -0.583q -0.209 0 -0.264 0.2035l -0.088 0.6765q -0.3575 -0.429 -0.814 -0.693q -0.4565 -0.264 -1.056 -0.264q -0.4785 0 -0.869 0.18425q -0.3905 0.18425 -0.6655 0.54175q -0.275 0.3575 -0.4235 0.891q -0.1485 0.5335 -0.1485 1.2265q 0 0.616 0.165 1.14675q 0.165 0.53075 0.473 0.92125q 0.308 0.3905 0.75625 0.61325q 0.44825 0.22275 1.00925 0.22275q 0.5115 0 0.87725 -0.17325q 0.36575 -0.17325 0.65175 -0.48125v 3.0855h 0.979Z "/></symbol><symbol id="gE60F4A6B0ED54B776ACD2EE2C9C6347B" overflow="visible"><path d="M 0 0m 1.76 1.342q 0.2695 -0.363 0.5885 -0.5115q 0.319 -0.1485 0.715 -0.1485q 0.781 0 1.199 0.5555q 0.418 0.5555 0.418 1.584q 0 0.5445 -0.09625 0.935q -0.09625 0.3905 -0.27775 0.64075q -0.1815 0.25025 -0.4455 0.36575q -0.264 0.1155 -0.5995 0.1155q -0.4785 0 -0.83875 -0.22q -0.36025 -0.22 -0.66275 -0.6215v -2.695Z m -0.0495 3.366q 0.352 0.4345 0.814 0.6985q 0.462 0.264 1.056 0.264q 0.484 0 0.8745 -0.18425q 0.3905 -0.18425 0.6655 -0.5445q 0.275 -0.36025 0.4235 -0.89375q 0.1485 -0.5335 0.1485 -1.2265q 0 -0.616 -0.165 -1.14675q -0.165 -0.53075 -0.47575 -0.9185q -0.31075 -0.38775 -0.759 -0.6105q -0.44825 -0.22275 -1.00925 -0.22275q -0.5115 0 -0.87725 0.17325q -0.36575 0.17325 -0.64625 0.48125v -2.464h -0.9845v 7.458h 0.5885q 0.209 0 0.2585 -0.2035l 0.088 -0.66Z "/></symbol><symbol id="gDF01D3E2135DD93BF20D05EAE8F9FA34" overflow="visible"><path d="M 0 0m 1.7875 8.1015v -8.1015h -0.979v 8.1015h 0.979Z "/></symbol><symbol id="g70061734F696B15746683841D09C91E5" overflow="visible"><path d="M 0 0m 0.6875 0.605q 0 0.143 0.05225 0.2695q 0.05225 0.1265 0.143 0.22q 0.09075 0.0935 0.21725 0.1485q 0.1265 0.055 0.2695 0.055q 0.143 0 0.2695 -0.055q 0.1265 -0.055 0.22 -0.1485q 0.0935 -0.0935 0.1485 -0.22q 0.055 -0.1265 0.055 -0.2695q 0 -0.1485 -0.055 -0.27225q -0.055 -0.12375 -0.1485 -0.21725q -0.0935 -0.0935 -0.22 -0.14575q -0.1265 -0.05225 -0.2695 -0.05225q -0.143 0 -0.2695 0.05225q -0.1265 0.05225 -0.21725 0.14575q -0.09075 0.0935 -0.143 0.21725q -0.05225 0.12375 -0.05225 0.27225Z m 0 4.125q 0 0.143 0.05225 0.2695q 0.05225 0.1265 0.143 0.22q 0.09075 0.0935 0.21725 0.1485q 0.1265 0.055 0.2695 0.055q 0.143 0 0.2695 -0.055q 0.1265 -0.055 0.22 -0.1485q 0.0935 -0.0935 0.1485 -0.22q 0.055 -0.1265 0.055 -0.2695q 0 -0.1485 -0.055 -0.27225q -0.055 -0.12375 -0.1485 -0.21725q -0.0935 -0.0935 -0.22 -0.14575q -0.1265 -0.05225 -0.2695 -0.05225q -0.143 0 -0.2695 0.05225q -0.1265 0.05225 -0.21725 0.14575q -0.09075 0.0935 -0.143 0.21725q -0.05225 0.12375 -0.05225 0.27225Z "/></symbol><symbol id="g9A853786B85A3F4F2DCA9335ECE51DCC" overflow="visible"><path d="M 0 0m 5.357 5.5715v -5.5715h -0.583q -0.209 0 -0.264 0.2035l -0.077 0.5995q -0.363 -0.4015 -0.814 -0.64625q -0.451 -0.24475 -1.034 -0.24475q -0.4565 0 -0.80575 0.15125q -0.34925 0.15125 -0.58575 0.42625q -0.2365 0.275 -0.35475 0.6655q -0.11825 0.3905 -0.11825 0.8635v 3.553h 0.979v -3.553q 0 -0.6325 0.28875 -0.979q 0.28875 -0.3465 0.88275 -0.3465q 0.4345 0 0.81125 0.20625q 0.37675 0.20625 0.69575 0.56925v 4.103h 0.979Z m -2.838 2.398q 0.1815 0 0.2695 -0.05775q 0.088 -0.05775 0.165 -0.18425l 0.8195 -1.331h -0.561q -0.1155 0 -0.187 0.03575q -0.0715 0.03575 -0.1485 0.11825l -1.287 1.419h 0.9295Z "/></symbol><symbol id="gEE9A066A740F79888974EE80C1B35719" overflow="visible"><path d="M 0 0m 5.357 5.5715v -5.5715h -0.583q -0.209 0 -0.264 0.2035l -0.077 0.5995q -0.363 -0.4015 -0.814 -0.64625q -0.451 -0.24475 -1.034 -0.24475q -0.4565 0 -0.80575 0.15125q -0.34925 0.15125 -0.58575 0.42625q -0.2365 0.275 -0.35475 0.6655q -0.11825 0.3905 -0.11825 0.8635v 3.553h 0.979v -3.553q 0 -0.6325 0.28875 -0.979q 0.28875 -0.3465 0.88275 -0.3465q 0.4345 0 0.81125 0.20625q 0.37675 0.20625 0.69575 0.56925v 4.103h 0.979Z "/></symbol><symbol id="g79F30941330D0E11990B0B9495380E00" overflow="visible"><path d="M 0 0m 0.6875 3.7125h 2.717v -0.8305h -2.717v 0.8305Z "/></symbol><symbol id="g8CCE5EDC67A04384DBF9782B85B99D0" overflow="visible"><path d="M 0 0m 1.452 8.4095q 0.231 -0.3905 0.3135 -0.825q 0.0825 -0.4345 0.0165 -0.858q -0.066 -0.4235 -0.275 -0.814q -0.209 -0.3905 -0.5555 -0.693l -0.297 0.1925q -0.0825 0.0495 -0.07425 0.12925q 0.00825 0.07975 0.05225 0.12925q 0.143 0.176 0.24475 0.42625q 0.10175 0.25025 0.132 0.539q 0.03025 0.28875 -0.0275 0.59675q -0.05775 0.308 -0.22825 0.594q -0.0715 0.1155 -0.04125 0.20625q 0.03025 0.09075 0.13475 0.13475l 0.605 0.242Z "/></symbol><symbol id="g38ADC557D1491E29BB8B96D8D208459" overflow="visible"><path d="M 0 0m 5.3515 0h -0.9405q -0.121 0 -0.18975 0.06325q -0.06875 0.06325 -0.11275 0.14025l -1.4025 2.1835q -0.022 -0.077 -0.04675 -0.15125q -0.02475 -0.07425 -0.06875 -0.13475l -1.298 -1.8975q -0.055 -0.077 -0.11825 -0.14025q -0.06325 -0.06325 -0.17325 -0.06325h -0.8745l 1.9525 2.86l -1.8755 2.7115h 0.9405q 0.121 0 0.176 -0.0385q 0.055 -0.0385 0.099 -0.11l 1.3695 -2.09q 0.044 0.1595 0.1375 0.308l 1.199 1.76q 0.0495 0.077 0.10725 0.12375q 0.05775 0.04675 0.14025 0.04675h 0.902l -1.8755 -2.662l 1.9525 -2.9095Z "/></symbol><symbol id="gA88CCB36EBC8F86D99DBA056F7DE0440" overflow="visible"><path d="M 0 0m 0.4455 7.1775q 0.1705 0.1595 0.37675 0.3025q 0.20625 0.143 0.451 0.253q 0.24475 0.11 0.528 0.17325q 0.28325 0.06325 0.61325 0.06325q 0.4345 0 0.80575 -0.1265q 0.37125 -0.1265 0.64075 -0.3575q 0.2695 -0.231 0.4235 -0.561q 0.154 -0.33 0.154 -0.7425q 0 -0.418 -0.12375 -0.7205q -0.12375 -0.3025 -0.3135 -0.53075q -0.18975 -0.22825 -0.4125 -0.396q -0.22275 -0.16775 -0.42075 -0.31625q -0.198 -0.1485 -0.33825 -0.297q -0.14025 -0.1485 -0.16225 -0.33l -0.099 -0.8415h -0.671l -0.066 0.913q -0.022 0.2475 0.0935 0.43175q 0.1155 0.18425 0.3025 0.3465q 0.187 0.16225 0.4125 0.319q 0.2255 0.15675 0.42075 0.34925q 0.19525 0.1925 0.32725 0.43725q 0.132 0.24475 0.132 0.58575q 0 0.2365 -0.0935 0.429q -0.0935 0.1925 -0.253 0.32725q -0.1595 0.13475 -0.37675 0.20625q -0.21725 0.0715 -0.46475 0.0715q -0.3355 0 -0.57475 -0.0825q -0.23925 -0.0825 -0.40425 -0.1815q -0.165 -0.099 -0.26675 -0.1815q -0.10175 -0.0825 -0.16775 -0.0825q -0.1375 0 -0.2145 0.1265l -0.2585 0.4125Z m 1.0725 -6.5725q 0 0.143 0.05225 0.2695q 0.05225 0.1265 0.143 0.22q 0.09075 0.0935 0.21725 0.1485q 0.1265 0.055 0.2695 0.055q 0.143 0 0.2695 -0.055q 0.1265 -0.055 0.22 -0.1485q 0.0935 -0.0935 0.1485 -0.22q 0.055 -0.1265 0.055 -0.2695q 0 -0.1485 -0.055 -0.27225q -0.055 -0.12375 -0.1485 -0.21725q -0.0935 -0.0935 -0.22 -0.14575q -0.1265 -0.05225 -0.2695 -0.05225q -0.143 0 -0.2695 0.05225q -0.1265 0.05225 -0.21725 0.14575q -0.09075 0.0935 -0.143 0.21725q -0.05225 0.12375 -0.05225 0.27225Z "/></symbol></defs></svg>